<mxfile host="app.diagrams.net" modified="2023-12-10T08:07:21.282Z" agent="Mozilla/5.0 (Windows NT 10.0; Win64; x64) AppleWebKit/537.36 (KHTML, like Gecko) Chrome/118.0.5993.2471 YaBrowser/23.11.0.2471 Yowser/2.5 Safari/537.36" etag="iweePQECOklx6w-VFVQ6" version="22.1.7" type="github">
  <diagram id="C5RBs43oDa-KdzZeNtuy" name="Page-1">
    <mxGraphModel dx="414" dy="254" grid="1" gridSize="10" guides="1" tooltips="1" connect="1" arrows="1" fold="1" page="1" pageScale="1" pageWidth="827" pageHeight="1169" math="0" shadow="0">
      <root>
        <mxCell id="WIyWlLk6GJQsqaUBKTNV-0" />
        <mxCell id="WIyWlLk6GJQsqaUBKTNV-1" parent="WIyWlLk6GJQsqaUBKTNV-0" />
        <mxCell id="Hqmv893eS7sad_yPtx1s-3" style="edgeStyle=orthogonalEdgeStyle;rounded=0;orthogonalLoop=1;jettySize=auto;html=1;exitX=0.5;exitY=1;exitDx=0;exitDy=0;entryX=0.5;entryY=0;entryDx=0;entryDy=0;" parent="WIyWlLk6GJQsqaUBKTNV-1" target="Hqmv893eS7sad_yPtx1s-0" edge="1">
          <mxGeometry relative="1" as="geometry">
            <mxPoint x="414.9399999999999" y="120" as="sourcePoint" />
          </mxGeometry>
        </mxCell>
        <mxCell id="-MrWlAkrLKYYtXTXgUd7-9" style="edgeStyle=none;curved=1;rounded=0;orthogonalLoop=1;jettySize=auto;html=1;exitX=0.5;exitY=1;exitDx=0;exitDy=0;fontSize=12;startSize=8;endSize=8;" parent="WIyWlLk6GJQsqaUBKTNV-1" source="Hqmv893eS7sad_yPtx1s-0" target="Hqmv893eS7sad_yPtx1s-4" edge="1">
          <mxGeometry relative="1" as="geometry" />
        </mxCell>
        <mxCell id="Hqmv893eS7sad_yPtx1s-0" value="&lt;div&gt;&amp;nbsp;H_initial = 300;&lt;/div&gt;&lt;div&gt;&amp;nbsp; H_final = 6000;&lt;/div&gt;&lt;div&gt;&amp;nbsp; V_initial = 310. * (1000. / 3600);&lt;/div&gt;&lt;div&gt;&amp;nbsp; &amp;nbsp; V_final = 700. * (1000. / 3600);&lt;/div&gt;&lt;div&gt;&amp;nbsp; &amp;nbsp; m = 47000;&lt;/div&gt;&lt;div&gt;&amp;nbsp; &amp;nbsp; S = 127;&lt;/div&gt;&lt;div&gt;&lt;br&gt;&lt;/div&gt;&lt;div&gt;&lt;span style=&quot;background-color: initial;&quot;&gt;dH = (H_final - H_initial) / n;&lt;/span&gt;&lt;/div&gt;&lt;div&gt;&lt;span style=&quot;background-color: initial;&quot;&gt;dV = (V_final - V_initial) / n;&lt;/span&gt;&lt;/div&gt;" style="whiteSpace=wrap;html=1;aspect=fixed;fillColor=#d5e8d4;strokeColor=#82b366;" parent="WIyWlLk6GJQsqaUBKTNV-1" vertex="1">
          <mxGeometry x="329.94" y="170" width="170" height="170" as="geometry" />
        </mxCell>
        <mxCell id="-MrWlAkrLKYYtXTXgUd7-10" style="edgeStyle=none;curved=1;rounded=0;orthogonalLoop=1;jettySize=auto;html=1;exitX=0.5;exitY=1;exitDx=0;exitDy=0;entryX=0.5;entryY=0;entryDx=0;entryDy=0;fontSize=12;startSize=8;endSize=8;" parent="WIyWlLk6GJQsqaUBKTNV-1" source="Hqmv893eS7sad_yPtx1s-4" target="Hqmv893eS7sad_yPtx1s-5" edge="1">
          <mxGeometry relative="1" as="geometry" />
        </mxCell>
        <mxCell id="Hqmv893eS7sad_yPtx1s-4" value="H = H_initial;" style="rounded=0;whiteSpace=wrap;html=1;fillColor=#d5e8d4;strokeColor=#82b366;" parent="WIyWlLk6GJQsqaUBKTNV-1" vertex="1">
          <mxGeometry x="359.94" y="390" width="110" height="30" as="geometry" />
        </mxCell>
        <mxCell id="-MrWlAkrLKYYtXTXgUd7-11" style="edgeStyle=none;curved=1;rounded=0;orthogonalLoop=1;jettySize=auto;html=1;exitX=0.5;exitY=1;exitDx=0;exitDy=0;entryX=0.5;entryY=0;entryDx=0;entryDy=0;fontSize=12;startSize=8;endSize=8;" parent="WIyWlLk6GJQsqaUBKTNV-1" source="Hqmv893eS7sad_yPtx1s-5" target="Hqmv893eS7sad_yPtx1s-7" edge="1">
          <mxGeometry relative="1" as="geometry" />
        </mxCell>
        <mxCell id="Hqmv893eS7sad_yPtx1s-5" value="i = 0; i &amp;lt; n + 1; i++" style="shape=hexagon;perimeter=hexagonPerimeter2;whiteSpace=wrap;html=1;fixedSize=1;fillColor=#e1d5e7;strokeColor=#9673a6;" parent="WIyWlLk6GJQsqaUBKTNV-1" vertex="1">
          <mxGeometry x="312.44" y="460" width="205" height="30" as="geometry" />
        </mxCell>
        <mxCell id="-MrWlAkrLKYYtXTXgUd7-12" style="edgeStyle=none;curved=1;rounded=0;orthogonalLoop=1;jettySize=auto;html=1;exitX=0.5;exitY=1;exitDx=0;exitDy=0;entryX=0.5;entryY=0;entryDx=0;entryDy=0;fontSize=12;startSize=8;endSize=8;" parent="WIyWlLk6GJQsqaUBKTNV-1" source="Hqmv893eS7sad_yPtx1s-7" target="Hqmv893eS7sad_yPtx1s-10" edge="1">
          <mxGeometry relative="1" as="geometry" />
        </mxCell>
        <mxCell id="Hqmv893eS7sad_yPtx1s-7" value="V1 = V_initial;" style="rounded=0;whiteSpace=wrap;html=1;fillColor=#d5e8d4;strokeColor=#82b366;" parent="WIyWlLk6GJQsqaUBKTNV-1" vertex="1">
          <mxGeometry x="354.94" y="520" width="120" height="30" as="geometry" />
        </mxCell>
        <mxCell id="-MrWlAkrLKYYtXTXgUd7-13" style="edgeStyle=none;curved=1;rounded=0;orthogonalLoop=1;jettySize=auto;html=1;exitX=0.5;exitY=1;exitDx=0;exitDy=0;entryX=0.5;entryY=0;entryDx=0;entryDy=0;fontSize=12;startSize=8;endSize=8;" parent="WIyWlLk6GJQsqaUBKTNV-1" source="Hqmv893eS7sad_yPtx1s-10" target="Hqmv893eS7sad_yPtx1s-11" edge="1">
          <mxGeometry relative="1" as="geometry" />
        </mxCell>
        <mxCell id="Hqmv893eS7sad_yPtx1s-10" value="j = 0; j &amp;lt; n; j++" style="shape=hexagon;perimeter=hexagonPerimeter2;whiteSpace=wrap;html=1;fixedSize=1;fillColor=#e1d5e7;strokeColor=#9673a6;" parent="WIyWlLk6GJQsqaUBKTNV-1" vertex="1">
          <mxGeometry x="312.58000000000004" y="584" width="205" height="30" as="geometry" />
        </mxCell>
        <mxCell id="-MrWlAkrLKYYtXTXgUd7-14" style="edgeStyle=none;curved=1;rounded=0;orthogonalLoop=1;jettySize=auto;html=1;exitX=0.5;exitY=1;exitDx=0;exitDy=0;entryX=0.5;entryY=0;entryDx=0;entryDy=0;fontSize=12;startSize=8;endSize=8;" parent="WIyWlLk6GJQsqaUBKTNV-1" source="Hqmv893eS7sad_yPtx1s-11" target="-MrWlAkrLKYYtXTXgUd7-1" edge="1">
          <mxGeometry relative="1" as="geometry" />
        </mxCell>
        <mxCell id="Hqmv893eS7sad_yPtx1s-11" value="&lt;div&gt;V2 = V1 + dV;&lt;/div&gt;" style="rounded=0;whiteSpace=wrap;html=1;fillColor=#d5e8d4;strokeColor=#82b366;" parent="WIyWlLk6GJQsqaUBKTNV-1" vertex="1">
          <mxGeometry x="312.58000000000004" y="634" width="205" height="20" as="geometry" />
        </mxCell>
        <mxCell id="Hqmv893eS7sad_yPtx1s-26" value="H = H + dH;" style="rounded=0;whiteSpace=wrap;html=1;fillColor=#d5e8d4;strokeColor=#82b366;" parent="WIyWlLk6GJQsqaUBKTNV-1" vertex="1">
          <mxGeometry x="355.08000000000004" y="810" width="120" height="30" as="geometry" />
        </mxCell>
        <mxCell id="-MrWlAkrLKYYtXTXgUd7-29" value="" style="edgeStyle=none;curved=1;rounded=0;orthogonalLoop=1;jettySize=auto;html=1;fontSize=12;startSize=8;endSize=8;exitX=0.517;exitY=0.983;exitDx=0;exitDy=0;exitPerimeter=0;" parent="WIyWlLk6GJQsqaUBKTNV-1" source="-MrWlAkrLKYYtXTXgUd7-302" target="Hqmv893eS7sad_yPtx1s-74" edge="1">
          <mxGeometry relative="1" as="geometry">
            <mxPoint x="415.3587500000001" y="990" as="sourcePoint" />
          </mxGeometry>
        </mxCell>
        <mxCell id="Hqmv893eS7sad_yPtx1s-65" style="edgeStyle=orthogonalEdgeStyle;rounded=0;orthogonalLoop=1;jettySize=auto;html=1;exitX=0.5;exitY=1;exitDx=0;exitDy=0;entryX=0;entryY=0.5;entryDx=0;entryDy=0;" parent="WIyWlLk6GJQsqaUBKTNV-1" edge="1">
          <mxGeometry relative="1" as="geometry">
            <Array as="points">
              <mxPoint x="589.88" y="1059" />
              <mxPoint x="449.88" y="1059" />
              <mxPoint x="449.88" y="734" />
            </Array>
            <mxPoint x="487.3800000000001" y="734" as="targetPoint" />
          </mxGeometry>
        </mxCell>
        <mxCell id="Hqmv893eS7sad_yPtx1s-74" value="&lt;font style=&quot;font-size: 30px;&quot;&gt;A&lt;/font&gt;" style="ellipse;whiteSpace=wrap;html=1;aspect=fixed;fillColor=#e51400;strokeColor=#B20000;fontColor=#ffffff;" parent="WIyWlLk6GJQsqaUBKTNV-1" vertex="1">
          <mxGeometry x="389" y="1040" width="50" height="50" as="geometry" />
        </mxCell>
        <mxCell id="Q4i2AqbILUPvcxVGY10N-0" value="Основная программа(функция main)" style="text;html=1;align=center;verticalAlign=middle;resizable=0;points=[];autosize=1;strokeColor=none;fillColor=none;" parent="WIyWlLk6GJQsqaUBKTNV-1" vertex="1">
          <mxGeometry x="307.59" y="20" width="230" height="30" as="geometry" />
        </mxCell>
        <mxCell id="-MrWlAkrLKYYtXTXgUd7-0" value="Начало" style="strokeWidth=2;html=1;shape=mxgraph.flowchart.start_1;whiteSpace=wrap;fillColor=#dae8fc;strokeColor=#6c8ebf;" parent="WIyWlLk6GJQsqaUBKTNV-1" vertex="1">
          <mxGeometry x="369.61" y="70" width="90.94" height="46.5" as="geometry" />
        </mxCell>
        <mxCell id="-MrWlAkrLKYYtXTXgUd7-15" style="edgeStyle=none;curved=1;rounded=0;orthogonalLoop=1;jettySize=auto;html=1;exitX=0.5;exitY=1;exitDx=0;exitDy=0;entryX=0.5;entryY=0;entryDx=0;entryDy=0;fontSize=12;startSize=8;endSize=8;" parent="WIyWlLk6GJQsqaUBKTNV-1" source="-MrWlAkrLKYYtXTXgUd7-1" target="-MrWlAkrLKYYtXTXgUd7-3" edge="1">
          <mxGeometry relative="1" as="geometry" />
        </mxCell>
        <mxCell id="-MrWlAkrLKYYtXTXgUd7-1" value="t1[i][j] = acceleration_time(V1, V2, H);" style="shape=process;whiteSpace=wrap;html=1;backgroundOutline=1;fontSize=16;fillColor=#d5e8d4;strokeColor=#82b366;" parent="WIyWlLk6GJQsqaUBKTNV-1" vertex="1">
          <mxGeometry x="244.47000000000003" y="680" width="341.22" height="25" as="geometry" />
        </mxCell>
        <mxCell id="-MrWlAkrLKYYtXTXgUd7-3" value="V1 = V2;" style="rounded=0;whiteSpace=wrap;html=1;fontSize=16;fillColor=#d5e8d4;strokeColor=#82b366;" parent="WIyWlLk6GJQsqaUBKTNV-1" vertex="1">
          <mxGeometry x="355.08" y="738" width="120" height="21" as="geometry" />
        </mxCell>
        <mxCell id="-MrWlAkrLKYYtXTXgUd7-6" style="edgeStyle=none;curved=1;rounded=0;orthogonalLoop=1;jettySize=auto;html=1;exitX=0.5;exitY=1;exitDx=0;exitDy=0;fontSize=12;startSize=8;endSize=8;" parent="WIyWlLk6GJQsqaUBKTNV-1" source="Hqmv893eS7sad_yPtx1s-26" target="Hqmv893eS7sad_yPtx1s-26" edge="1">
          <mxGeometry relative="1" as="geometry" />
        </mxCell>
        <mxCell id="-MrWlAkrLKYYtXTXgUd7-21" style="edgeStyle=orthogonalEdgeStyle;rounded=0;orthogonalLoop=1;jettySize=auto;html=1;entryX=0;entryY=0.5;entryDx=0;entryDy=0;" parent="WIyWlLk6GJQsqaUBKTNV-1" source="-MrWlAkrLKYYtXTXgUd7-3" target="Hqmv893eS7sad_yPtx1s-10" edge="1">
          <mxGeometry relative="1" as="geometry">
            <Array as="points">
              <mxPoint x="415.33000000000004" y="780" />
              <mxPoint x="234.33" y="780" />
              <mxPoint x="234.33" y="599" />
            </Array>
            <mxPoint x="415.33000000000004" y="764" as="sourcePoint" />
            <mxPoint x="235.32000000000002" y="599" as="targetPoint" />
          </mxGeometry>
        </mxCell>
        <mxCell id="-MrWlAkrLKYYtXTXgUd7-25" style="edgeStyle=orthogonalEdgeStyle;rounded=0;orthogonalLoop=1;jettySize=auto;html=1;exitX=1;exitY=0.5;exitDx=0;exitDy=0;entryX=0.5;entryY=0;entryDx=0;entryDy=0;" parent="WIyWlLk6GJQsqaUBKTNV-1" source="Hqmv893eS7sad_yPtx1s-10" target="Hqmv893eS7sad_yPtx1s-26" edge="1">
          <mxGeometry relative="1" as="geometry">
            <mxPoint x="594.5100000000001" y="590" as="sourcePoint" />
            <mxPoint x="502.01" y="745" as="targetPoint" />
            <Array as="points">
              <mxPoint x="594.33" y="599" />
              <mxPoint x="594.33" y="790" />
              <mxPoint x="415.33000000000004" y="790" />
            </Array>
          </mxGeometry>
        </mxCell>
        <mxCell id="-MrWlAkrLKYYtXTXgUd7-26" style="edgeStyle=orthogonalEdgeStyle;rounded=0;orthogonalLoop=1;jettySize=auto;html=1;exitX=0.5;exitY=1;exitDx=0;exitDy=0;entryX=0;entryY=0.5;entryDx=0;entryDy=0;" parent="WIyWlLk6GJQsqaUBKTNV-1" source="Hqmv893eS7sad_yPtx1s-26" target="Hqmv893eS7sad_yPtx1s-5" edge="1">
          <mxGeometry relative="1" as="geometry">
            <Array as="points">
              <mxPoint x="415.33000000000004" y="886" />
              <mxPoint x="214.33" y="886" />
              <mxPoint x="214.33" y="475" />
            </Array>
            <mxPoint x="414.25" y="865" as="sourcePoint" />
            <mxPoint x="311.33000000000004" y="490" as="targetPoint" />
          </mxGeometry>
        </mxCell>
        <mxCell id="-MrWlAkrLKYYtXTXgUd7-28" style="edgeStyle=orthogonalEdgeStyle;rounded=0;orthogonalLoop=1;jettySize=auto;html=1;exitX=1;exitY=0.5;exitDx=0;exitDy=0;entryX=0.526;entryY=0.032;entryDx=0;entryDy=0;entryPerimeter=0;" parent="WIyWlLk6GJQsqaUBKTNV-1" source="Hqmv893eS7sad_yPtx1s-5" target="-MrWlAkrLKYYtXTXgUd7-302" edge="1">
          <mxGeometry relative="1" as="geometry">
            <mxPoint x="551.47" y="634" as="sourcePoint" />
            <mxPoint x="415.6100000000001" y="930" as="targetPoint" />
            <Array as="points">
              <mxPoint x="614" y="475" />
              <mxPoint x="614" y="900" />
              <mxPoint x="416" y="900" />
            </Array>
          </mxGeometry>
        </mxCell>
        <mxCell id="-MrWlAkrLKYYtXTXgUd7-30" value="&lt;font style=&quot;font-size: 23px;&quot;&gt;&amp;gt;&lt;/font&gt;" style="ellipse;whiteSpace=wrap;html=1;aspect=fixed;fillColor=#e51400;strokeColor=#B20000;fontColor=#ffffff;" parent="WIyWlLk6GJQsqaUBKTNV-1" vertex="1">
          <mxGeometry x="558.34" y="728" width="32" height="32" as="geometry" />
        </mxCell>
        <mxCell id="-MrWlAkrLKYYtXTXgUd7-256" style="edgeStyle=none;curved=1;rounded=0;orthogonalLoop=1;jettySize=auto;html=1;exitX=0.5;exitY=1;exitDx=0;exitDy=0;fontSize=12;startSize=8;endSize=8;" parent="WIyWlLk6GJQsqaUBKTNV-1" source="-MrWlAkrLKYYtXTXgUd7-80" target="-MrWlAkrLKYYtXTXgUd7-82" edge="1">
          <mxGeometry relative="1" as="geometry" />
        </mxCell>
        <mxCell id="-MrWlAkrLKYYtXTXgUd7-80" value="&lt;span style=&quot;font-size: 30px;&quot;&gt;C&lt;br&gt;&lt;/span&gt;" style="ellipse;whiteSpace=wrap;html=1;aspect=fixed;fillColor=#e51400;fontColor=#ffffff;strokeColor=#B20000;" parent="WIyWlLk6GJQsqaUBKTNV-1" vertex="1">
          <mxGeometry x="205.05" y="2380" width="50" height="50" as="geometry" />
        </mxCell>
        <mxCell id="-MrWlAkrLKYYtXTXgUd7-81" value="" style="edgeStyle=orthogonalEdgeStyle;rounded=0;orthogonalLoop=1;jettySize=auto;html=1;entryX=0.5;entryY=0;entryDx=0;entryDy=0;" parent="WIyWlLk6GJQsqaUBKTNV-1" source="-MrWlAkrLKYYtXTXgUd7-82" target="-MrWlAkrLKYYtXTXgUd7-85" edge="1">
          <mxGeometry relative="1" as="geometry" />
        </mxCell>
        <mxCell id="-MrWlAkrLKYYtXTXgUd7-82" value="&lt;div&gt;matr[n][n].time = 0;&lt;/div&gt;&lt;div&gt;&lt;span style=&quot;background-color: initial;&quot;&gt;matr.event = &quot;нач&quot;;&lt;/span&gt;&lt;/div&gt;" style="rounded=0;whiteSpace=wrap;html=1;fillColor=#d5e8d4;strokeColor=#82b366;" parent="WIyWlLk6GJQsqaUBKTNV-1" vertex="1">
          <mxGeometry x="152.79999999999998" y="2528" width="154.79" height="60" as="geometry" />
        </mxCell>
        <mxCell id="-MrWlAkrLKYYtXTXgUd7-83" style="edgeStyle=orthogonalEdgeStyle;rounded=0;orthogonalLoop=1;jettySize=auto;html=1;exitX=1;exitY=0.5;exitDx=0;exitDy=0;" parent="WIyWlLk6GJQsqaUBKTNV-1" edge="1">
          <mxGeometry relative="1" as="geometry">
            <mxPoint x="325.05000000000007" y="2663" as="sourcePoint" />
            <mxPoint x="232.54999999999995" y="2818" as="targetPoint" />
            <Array as="points">
              <mxPoint x="362.91" y="2663" />
              <mxPoint x="362.91" y="2788" />
              <mxPoint x="232.91" y="2788" />
            </Array>
          </mxGeometry>
        </mxCell>
        <mxCell id="-MrWlAkrLKYYtXTXgUd7-84" value="" style="edgeStyle=orthogonalEdgeStyle;rounded=0;orthogonalLoop=1;jettySize=auto;html=1;" parent="WIyWlLk6GJQsqaUBKTNV-1" source="-MrWlAkrLKYYtXTXgUd7-85" target="-MrWlAkrLKYYtXTXgUd7-87" edge="1">
          <mxGeometry relative="1" as="geometry" />
        </mxCell>
        <mxCell id="-MrWlAkrLKYYtXTXgUd7-85" value="i = n - 1; i &amp;gt;= 0; i--" style="shape=hexagon;perimeter=hexagonPerimeter2;whiteSpace=wrap;html=1;fixedSize=1;fillColor=#e1d5e7;strokeColor=#9673a6;" parent="WIyWlLk6GJQsqaUBKTNV-1" vertex="1">
          <mxGeometry x="127.54999999999998" y="2648" width="205" height="30" as="geometry" />
        </mxCell>
        <mxCell id="-MrWlAkrLKYYtXTXgUd7-86" style="edgeStyle=orthogonalEdgeStyle;rounded=0;orthogonalLoop=1;jettySize=auto;html=1;exitX=0.5;exitY=1;exitDx=0;exitDy=0;entryX=0;entryY=0.5;entryDx=0;entryDy=0;" parent="WIyWlLk6GJQsqaUBKTNV-1" source="-MrWlAkrLKYYtXTXgUd7-87" target="-MrWlAkrLKYYtXTXgUd7-85" edge="1">
          <mxGeometry relative="1" as="geometry">
            <Array as="points">
              <mxPoint x="234.91" y="2758" />
              <mxPoint x="234.91" y="2778" />
              <mxPoint x="89.91" y="2778" />
              <mxPoint x="89.91" y="2663" />
            </Array>
          </mxGeometry>
        </mxCell>
        <mxCell id="-MrWlAkrLKYYtXTXgUd7-87" value="&lt;div&gt;matr[i][n].time = matr[i + 1][n].time + t2[i][n];&lt;/div&gt;&lt;div&gt;&lt;span style=&quot;background-color: initial;&quot;&gt;matr[i][n].event = &quot;под&quot;;&lt;/span&gt;&lt;/div&gt;" style="rounded=0;whiteSpace=wrap;html=1;fillColor=#d5e8d4;strokeColor=#82b366;" parent="WIyWlLk6GJQsqaUBKTNV-1" vertex="1">
          <mxGeometry x="108.87" y="2708" width="242.36" height="50" as="geometry" />
        </mxCell>
        <mxCell id="-MrWlAkrLKYYtXTXgUd7-88" value="" style="edgeStyle=orthogonalEdgeStyle;rounded=0;orthogonalLoop=1;jettySize=auto;html=1;" parent="WIyWlLk6GJQsqaUBKTNV-1" source="-MrWlAkrLKYYtXTXgUd7-90" target="-MrWlAkrLKYYtXTXgUd7-92" edge="1">
          <mxGeometry relative="1" as="geometry" />
        </mxCell>
        <mxCell id="-MrWlAkrLKYYtXTXgUd7-89" style="edgeStyle=orthogonalEdgeStyle;rounded=0;orthogonalLoop=1;jettySize=auto;html=1;exitX=1;exitY=0.5;exitDx=0;exitDy=0;entryX=0.5;entryY=0;entryDx=0;entryDy=0;" parent="WIyWlLk6GJQsqaUBKTNV-1" source="-MrWlAkrLKYYtXTXgUd7-90" target="-MrWlAkrLKYYtXTXgUd7-95" edge="1">
          <mxGeometry relative="1" as="geometry">
            <Array as="points">
              <mxPoint x="369.91" y="2833" />
              <mxPoint x="369.91" y="2948" />
              <mxPoint x="238.91" y="2948" />
            </Array>
          </mxGeometry>
        </mxCell>
        <mxCell id="-MrWlAkrLKYYtXTXgUd7-90" value="i = n - 1; i &amp;gt;= 0; i--" style="shape=hexagon;perimeter=hexagonPerimeter2;whiteSpace=wrap;html=1;fixedSize=1;fillColor=#e1d5e7;strokeColor=#9673a6;" parent="WIyWlLk6GJQsqaUBKTNV-1" vertex="1">
          <mxGeometry x="127.68999999999997" y="2818" width="205" height="30" as="geometry" />
        </mxCell>
        <mxCell id="-MrWlAkrLKYYtXTXgUd7-91" style="edgeStyle=orthogonalEdgeStyle;rounded=0;orthogonalLoop=1;jettySize=auto;html=1;exitX=0.5;exitY=1;exitDx=0;exitDy=0;entryX=0;entryY=0.5;entryDx=0;entryDy=0;" parent="WIyWlLk6GJQsqaUBKTNV-1" source="-MrWlAkrLKYYtXTXgUd7-92" target="-MrWlAkrLKYYtXTXgUd7-90" edge="1">
          <mxGeometry relative="1" as="geometry">
            <Array as="points">
              <mxPoint x="235.04999999999998" y="2928" />
              <mxPoint x="235.04999999999998" y="2948" />
              <mxPoint x="90.05" y="2948" />
              <mxPoint x="90.05" y="2833" />
            </Array>
          </mxGeometry>
        </mxCell>
        <mxCell id="-MrWlAkrLKYYtXTXgUd7-92" value="&lt;div&gt;matr[n][i].time = matr[n][i + 1].time + t1[n][i];&lt;/div&gt;&lt;div&gt;&lt;span style=&quot;background-color: initial;&quot;&gt;matr[n][i].event = &quot;раз&quot;;&lt;/span&gt;&lt;/div&gt;" style="rounded=0;whiteSpace=wrap;html=1;fillColor=#d5e8d4;strokeColor=#82b366;" parent="WIyWlLk6GJQsqaUBKTNV-1" vertex="1">
          <mxGeometry x="109.01" y="2878" width="242.36" height="50" as="geometry" />
        </mxCell>
        <mxCell id="-MrWlAkrLKYYtXTXgUd7-93" value="" style="edgeStyle=orthogonalEdgeStyle;rounded=0;orthogonalLoop=1;jettySize=auto;html=1;" parent="WIyWlLk6GJQsqaUBKTNV-1" source="-MrWlAkrLKYYtXTXgUd7-95" target="-MrWlAkrLKYYtXTXgUd7-98" edge="1">
          <mxGeometry relative="1" as="geometry" />
        </mxCell>
        <mxCell id="-MrWlAkrLKYYtXTXgUd7-94" style="edgeStyle=orthogonalEdgeStyle;rounded=0;orthogonalLoop=1;jettySize=auto;html=1;exitX=1;exitY=0.5;exitDx=0;exitDy=0;" parent="WIyWlLk6GJQsqaUBKTNV-1" source="-MrWlAkrLKYYtXTXgUd7-95" edge="1">
          <mxGeometry relative="1" as="geometry">
            <mxPoint x="255.08999999999995" y="3438" as="targetPoint" />
            <mxPoint x="336.51" y="2993" as="sourcePoint" />
            <Array as="points">
              <mxPoint x="565" y="3003" />
              <mxPoint x="565" y="3408" />
              <mxPoint x="255" y="3408" />
            </Array>
          </mxGeometry>
        </mxCell>
        <mxCell id="-MrWlAkrLKYYtXTXgUd7-95" value="i = n-1; i &amp;gt;= 0; i--" style="shape=hexagon;perimeter=hexagonPerimeter2;whiteSpace=wrap;html=1;fixedSize=1;fillColor=#e1d5e7;strokeColor=#9673a6;" parent="WIyWlLk6GJQsqaUBKTNV-1" vertex="1">
          <mxGeometry x="136.19" y="2988" width="205" height="30" as="geometry" />
        </mxCell>
        <mxCell id="-MrWlAkrLKYYtXTXgUd7-96" value="" style="edgeStyle=orthogonalEdgeStyle;rounded=0;orthogonalLoop=1;jettySize=auto;html=1;" parent="WIyWlLk6GJQsqaUBKTNV-1" source="-MrWlAkrLKYYtXTXgUd7-98" target="-MrWlAkrLKYYtXTXgUd7-100" edge="1">
          <mxGeometry relative="1" as="geometry" />
        </mxCell>
        <mxCell id="-MrWlAkrLKYYtXTXgUd7-97" style="edgeStyle=orthogonalEdgeStyle;rounded=0;orthogonalLoop=1;jettySize=auto;html=1;exitX=1;exitY=0.5;exitDx=0;exitDy=0;entryX=0;entryY=0.5;entryDx=0;entryDy=0;" parent="WIyWlLk6GJQsqaUBKTNV-1" source="-MrWlAkrLKYYtXTXgUd7-98" target="-MrWlAkrLKYYtXTXgUd7-95" edge="1">
          <mxGeometry relative="1" as="geometry">
            <Array as="points">
              <mxPoint x="549.91" y="3053" />
              <mxPoint x="549.91" y="3398" />
              <mxPoint x="19.91" y="3398" />
              <mxPoint x="19.91" y="3003" />
            </Array>
          </mxGeometry>
        </mxCell>
        <mxCell id="-MrWlAkrLKYYtXTXgUd7-98" value="j = n-1; j &amp;gt;= 0; j--" style="shape=hexagon;perimeter=hexagonPerimeter2;whiteSpace=wrap;html=1;fixedSize=1;fillColor=#e1d5e7;strokeColor=#9673a6;" parent="WIyWlLk6GJQsqaUBKTNV-1" vertex="1">
          <mxGeometry x="136.19" y="3038" width="205" height="30" as="geometry" />
        </mxCell>
        <mxCell id="-MrWlAkrLKYYtXTXgUd7-99" value="" style="edgeStyle=orthogonalEdgeStyle;rounded=0;orthogonalLoop=1;jettySize=auto;html=1;" parent="WIyWlLk6GJQsqaUBKTNV-1" source="-MrWlAkrLKYYtXTXgUd7-100" target="-MrWlAkrLKYYtXTXgUd7-105" edge="1">
          <mxGeometry relative="1" as="geometry" />
        </mxCell>
        <mxCell id="-MrWlAkrLKYYtXTXgUd7-100" value="&lt;div&gt;raz = matr[i][j + 1].time + t1[i][j];&lt;/div&gt;&lt;div&gt;&lt;span style=&quot;background-color: initial;&quot;&gt;pod = matr[i + 1][j].time + t2[i][j];&lt;/span&gt;&lt;/div&gt;&lt;div&gt;&lt;span style=&quot;background-color: initial;&quot;&gt;rp = matr[i + 1][j + 1].time + t3[i][j];&lt;/span&gt;&lt;/div&gt;" style="rounded=0;whiteSpace=wrap;html=1;fillColor=#d5e8d4;strokeColor=#82b366;" parent="WIyWlLk6GJQsqaUBKTNV-1" vertex="1">
          <mxGeometry x="123.69" y="3098" width="230" height="50" as="geometry" />
        </mxCell>
        <mxCell id="-MrWlAkrLKYYtXTXgUd7-101" style="edgeStyle=orthogonalEdgeStyle;rounded=0;orthogonalLoop=1;jettySize=auto;html=1;exitX=1;exitY=0.5;exitDx=0;exitDy=0;entryX=0.5;entryY=0;entryDx=0;entryDy=0;" parent="WIyWlLk6GJQsqaUBKTNV-1" source="-MrWlAkrLKYYtXTXgUd7-105" target="-MrWlAkrLKYYtXTXgUd7-112" edge="1">
          <mxGeometry relative="1" as="geometry" />
        </mxCell>
        <mxCell id="-MrWlAkrLKYYtXTXgUd7-102" value="нет" style="edgeLabel;html=1;align=center;verticalAlign=middle;resizable=0;points=[];" parent="-MrWlAkrLKYYtXTXgUd7-101" vertex="1" connectable="0">
          <mxGeometry x="-0.1841" y="2" relative="1" as="geometry">
            <mxPoint x="3" y="-13" as="offset" />
          </mxGeometry>
        </mxCell>
        <mxCell id="-MrWlAkrLKYYtXTXgUd7-103" style="edgeStyle=orthogonalEdgeStyle;rounded=0;orthogonalLoop=1;jettySize=auto;html=1;exitX=0;exitY=0.5;exitDx=0;exitDy=0;entryX=0.5;entryY=0;entryDx=0;entryDy=0;" parent="WIyWlLk6GJQsqaUBKTNV-1" source="-MrWlAkrLKYYtXTXgUd7-105" target="-MrWlAkrLKYYtXTXgUd7-107" edge="1">
          <mxGeometry relative="1" as="geometry" />
        </mxCell>
        <mxCell id="-MrWlAkrLKYYtXTXgUd7-104" value="да" style="edgeLabel;html=1;align=center;verticalAlign=middle;resizable=0;points=[];" parent="-MrWlAkrLKYYtXTXgUd7-103" vertex="1" connectable="0">
          <mxGeometry x="-0.2604" y="-2" relative="1" as="geometry">
            <mxPoint x="6" y="-13" as="offset" />
          </mxGeometry>
        </mxCell>
        <mxCell id="-MrWlAkrLKYYtXTXgUd7-105" value="raz &amp;lt; pod &amp;amp;&amp;amp; raz &amp;lt; rp" style="rhombus;whiteSpace=wrap;html=1;fillColor=#ffe6cc;strokeColor=#d79b00;" parent="WIyWlLk6GJQsqaUBKTNV-1" vertex="1">
          <mxGeometry x="163.07999999999998" y="3178" width="151.22" height="50" as="geometry" />
        </mxCell>
        <mxCell id="-MrWlAkrLKYYtXTXgUd7-106" style="edgeStyle=orthogonalEdgeStyle;rounded=0;orthogonalLoop=1;jettySize=auto;html=1;exitX=0.5;exitY=1;exitDx=0;exitDy=0;entryX=0;entryY=0.5;entryDx=0;entryDy=0;" parent="WIyWlLk6GJQsqaUBKTNV-1" source="-MrWlAkrLKYYtXTXgUd7-107" target="-MrWlAkrLKYYtXTXgUd7-98" edge="1">
          <mxGeometry relative="1" as="geometry">
            <mxPoint x="229.91" y="3418" as="targetPoint" />
            <Array as="points">
              <mxPoint x="114.91" y="3378" />
              <mxPoint x="39.91" y="3378" />
              <mxPoint x="39.91" y="3053" />
            </Array>
          </mxGeometry>
        </mxCell>
        <mxCell id="-MrWlAkrLKYYtXTXgUd7-107" value="&lt;div&gt;matr[i][j].time = raz;&lt;/div&gt;&lt;div&gt;&lt;span style=&quot;background-color: initial;&quot;&gt;matr[i][j].event = &quot;раз&quot;;&lt;/span&gt;&lt;/div&gt;" style="rounded=0;whiteSpace=wrap;html=1;fillColor=#d5e8d4;strokeColor=#82b366;" parent="WIyWlLk6GJQsqaUBKTNV-1" vertex="1">
          <mxGeometry x="49.91" y="3278" width="129.86" height="60" as="geometry" />
        </mxCell>
        <mxCell id="-MrWlAkrLKYYtXTXgUd7-108" value="" style="edgeStyle=orthogonalEdgeStyle;rounded=0;orthogonalLoop=1;jettySize=auto;html=1;" parent="WIyWlLk6GJQsqaUBKTNV-1" source="-MrWlAkrLKYYtXTXgUd7-112" target="-MrWlAkrLKYYtXTXgUd7-114" edge="1">
          <mxGeometry relative="1" as="geometry">
            <Array as="points">
              <mxPoint x="293.91" y="3248" />
            </Array>
          </mxGeometry>
        </mxCell>
        <mxCell id="-MrWlAkrLKYYtXTXgUd7-109" value="да" style="edgeLabel;html=1;align=center;verticalAlign=middle;resizable=0;points=[];" parent="-MrWlAkrLKYYtXTXgUd7-108" vertex="1" connectable="0">
          <mxGeometry x="-0.3611" relative="1" as="geometry">
            <mxPoint x="4" y="-10" as="offset" />
          </mxGeometry>
        </mxCell>
        <mxCell id="-MrWlAkrLKYYtXTXgUd7-110" value="" style="edgeStyle=orthogonalEdgeStyle;rounded=0;orthogonalLoop=1;jettySize=auto;html=1;" parent="WIyWlLk6GJQsqaUBKTNV-1" source="-MrWlAkrLKYYtXTXgUd7-112" target="-MrWlAkrLKYYtXTXgUd7-116" edge="1">
          <mxGeometry relative="1" as="geometry">
            <Array as="points">
              <mxPoint x="449.91" y="3248" />
            </Array>
          </mxGeometry>
        </mxCell>
        <mxCell id="-MrWlAkrLKYYtXTXgUd7-111" value="нет" style="edgeLabel;html=1;align=center;verticalAlign=middle;resizable=0;points=[];" parent="-MrWlAkrLKYYtXTXgUd7-110" vertex="1" connectable="0">
          <mxGeometry x="-0.4072" y="2" relative="1" as="geometry">
            <mxPoint y="-8" as="offset" />
          </mxGeometry>
        </mxCell>
        <mxCell id="-MrWlAkrLKYYtXTXgUd7-112" value="pod &amp;lt; rp" style="rhombus;whiteSpace=wrap;html=1;fillColor=#ffe6cc;strokeColor=#d79b00;" parent="WIyWlLk6GJQsqaUBKTNV-1" vertex="1">
          <mxGeometry x="332.69" y="3228" width="80" height="40" as="geometry" />
        </mxCell>
        <mxCell id="-MrWlAkrLKYYtXTXgUd7-113" style="edgeStyle=orthogonalEdgeStyle;rounded=0;orthogonalLoop=1;jettySize=auto;html=1;entryX=0;entryY=0.5;entryDx=0;entryDy=0;" parent="WIyWlLk6GJQsqaUBKTNV-1" source="-MrWlAkrLKYYtXTXgUd7-114" target="-MrWlAkrLKYYtXTXgUd7-98" edge="1">
          <mxGeometry relative="1" as="geometry">
            <mxPoint x="229.91" y="3418" as="targetPoint" />
            <Array as="points">
              <mxPoint x="289.91" y="3378" />
              <mxPoint x="39.91" y="3378" />
              <mxPoint x="39.91" y="3053" />
            </Array>
          </mxGeometry>
        </mxCell>
        <mxCell id="-MrWlAkrLKYYtXTXgUd7-114" value="&lt;div&gt;matr[i][j].time = pod;&lt;span style=&quot;background-color: initial;&quot;&gt;&amp;nbsp;&lt;/span&gt;&lt;/div&gt;&lt;div&gt;&lt;span style=&quot;background-color: initial;&quot;&gt;matrix[i][j].event = &quot;под&quot;);&lt;/span&gt;&lt;/div&gt;" style="rounded=0;whiteSpace=wrap;html=1;fillColor=#d5e8d4;strokeColor=#82b366;" parent="WIyWlLk6GJQsqaUBKTNV-1" vertex="1">
          <mxGeometry x="219.91" y="3278" width="140" height="60" as="geometry" />
        </mxCell>
        <mxCell id="-MrWlAkrLKYYtXTXgUd7-115" style="edgeStyle=orthogonalEdgeStyle;rounded=0;orthogonalLoop=1;jettySize=auto;html=1;entryX=0;entryY=0.5;entryDx=0;entryDy=0;" parent="WIyWlLk6GJQsqaUBKTNV-1" source="-MrWlAkrLKYYtXTXgUd7-116" target="-MrWlAkrLKYYtXTXgUd7-98" edge="1">
          <mxGeometry relative="1" as="geometry">
            <mxPoint x="229.91" y="3418" as="targetPoint" />
            <Array as="points">
              <mxPoint x="454.91" y="3378" />
              <mxPoint x="39.91" y="3378" />
              <mxPoint x="39.91" y="3053" />
            </Array>
          </mxGeometry>
        </mxCell>
        <mxCell id="-MrWlAkrLKYYtXTXgUd7-116" value="&lt;div style=&quot;border-color: var(--border-color);&quot;&gt;matr[i][j].time = rp;&amp;nbsp;&lt;/div&gt;&lt;div style=&quot;border-color: var(--border-color);&quot;&gt;&lt;span style=&quot;border-color: var(--border-color); background-color: initial;&quot;&gt;matrix[i][j].event = &quot;р-п&quot;);&lt;/span&gt;&lt;/div&gt;" style="rounded=0;whiteSpace=wrap;html=1;fillColor=#d5e8d4;strokeColor=#82b366;" parent="WIyWlLk6GJQsqaUBKTNV-1" vertex="1">
          <mxGeometry x="379.91" y="3278" width="150" height="60" as="geometry" />
        </mxCell>
        <mxCell id="-MrWlAkrLKYYtXTXgUd7-117" value="&lt;font style=&quot;font-size: 30px;&quot;&gt;D&lt;br&gt;&lt;/font&gt;" style="ellipse;whiteSpace=wrap;html=1;aspect=fixed;fillColor=#e51400;fontColor=#ffffff;strokeColor=#B20000;" parent="WIyWlLk6GJQsqaUBKTNV-1" vertex="1">
          <mxGeometry x="229.91" y="3438" width="50" height="50" as="geometry" />
        </mxCell>
        <mxCell id="-MrWlAkrLKYYtXTXgUd7-331" style="edgeStyle=none;curved=1;rounded=0;orthogonalLoop=1;jettySize=auto;html=1;exitX=0.5;exitY=1;exitDx=0;exitDy=0;entryX=0.5;entryY=0;entryDx=0;entryDy=0;fontSize=12;startSize=8;endSize=8;" parent="WIyWlLk6GJQsqaUBKTNV-1" source="-MrWlAkrLKYYtXTXgUd7-119" target="-MrWlAkrLKYYtXTXgUd7-328" edge="1">
          <mxGeometry relative="1" as="geometry" />
        </mxCell>
        <mxCell id="G4KadfX6KPJVV7M6jvxg-134" value="" style="edgeStyle=orthogonalEdgeStyle;rounded=0;orthogonalLoop=1;jettySize=auto;html=1;" edge="1" parent="WIyWlLk6GJQsqaUBKTNV-1" source="-MrWlAkrLKYYtXTXgUd7-119" target="G4KadfX6KPJVV7M6jvxg-124">
          <mxGeometry relative="1" as="geometry" />
        </mxCell>
        <mxCell id="-MrWlAkrLKYYtXTXgUd7-119" value="&lt;font style=&quot;font-size: 30px;&quot;&gt;D&lt;br&gt;&lt;/font&gt;" style="ellipse;whiteSpace=wrap;html=1;aspect=fixed;fillColor=#e51400;fontColor=#ffffff;strokeColor=#B20000;" parent="WIyWlLk6GJQsqaUBKTNV-1" vertex="1">
          <mxGeometry x="567.3299999999999" y="2380" width="50" height="50" as="geometry" />
        </mxCell>
        <mxCell id="-MrWlAkrLKYYtXTXgUd7-166" style="edgeStyle=none;curved=1;rounded=0;orthogonalLoop=1;jettySize=auto;html=1;exitX=0.5;exitY=1;exitDx=0;exitDy=0;entryX=0.5;entryY=0;entryDx=0;entryDy=0;fontSize=12;startSize=8;endSize=8;" parent="WIyWlLk6GJQsqaUBKTNV-1" source="-MrWlAkrLKYYtXTXgUd7-124" target="-MrWlAkrLKYYtXTXgUd7-141" edge="1">
          <mxGeometry relative="1" as="geometry" />
        </mxCell>
        <mxCell id="-MrWlAkrLKYYtXTXgUd7-124" value="&lt;font style=&quot;font-size: 30px;&quot;&gt;A&lt;/font&gt;" style="ellipse;whiteSpace=wrap;html=1;aspect=fixed;fillColor=#e51400;fontColor=#ffffff;strokeColor=#B20000;" parent="WIyWlLk6GJQsqaUBKTNV-1" vertex="1">
          <mxGeometry x="168.6500000000001" y="1280" width="50" height="50" as="geometry" />
        </mxCell>
        <mxCell id="-MrWlAkrLKYYtXTXgUd7-140" style="edgeStyle=none;curved=1;rounded=0;orthogonalLoop=1;jettySize=auto;html=1;exitX=0.5;exitY=1;exitDx=0;exitDy=0;entryX=0.5;entryY=0;entryDx=0;entryDy=0;fontSize=12;startSize=8;endSize=8;" parent="WIyWlLk6GJQsqaUBKTNV-1" source="-MrWlAkrLKYYtXTXgUd7-141" target="-MrWlAkrLKYYtXTXgUd7-143" edge="1">
          <mxGeometry relative="1" as="geometry" />
        </mxCell>
        <mxCell id="-MrWlAkrLKYYtXTXgUd7-141" value="H1 = H_initial;" style="rounded=0;whiteSpace=wrap;html=1;fillColor=#d5e8d4;strokeColor=#82b366;" parent="WIyWlLk6GJQsqaUBKTNV-1" vertex="1">
          <mxGeometry x="137.98000000000002" y="1390" width="110" height="30" as="geometry" />
        </mxCell>
        <mxCell id="-MrWlAkrLKYYtXTXgUd7-142" style="edgeStyle=none;curved=1;rounded=0;orthogonalLoop=1;jettySize=auto;html=1;exitX=0.5;exitY=1;exitDx=0;exitDy=0;entryX=0.5;entryY=0;entryDx=0;entryDy=0;fontSize=12;startSize=8;endSize=8;" parent="WIyWlLk6GJQsqaUBKTNV-1" source="-MrWlAkrLKYYtXTXgUd7-143" target="-MrWlAkrLKYYtXTXgUd7-145" edge="1">
          <mxGeometry relative="1" as="geometry" />
        </mxCell>
        <mxCell id="-MrWlAkrLKYYtXTXgUd7-143" value="i = 0; i &amp;lt; n; i++" style="shape=hexagon;perimeter=hexagonPerimeter2;whiteSpace=wrap;html=1;fixedSize=1;fillColor=#e1d5e7;strokeColor=#9673a6;" parent="WIyWlLk6GJQsqaUBKTNV-1" vertex="1">
          <mxGeometry x="90.48000000000006" y="1460" width="205" height="30" as="geometry" />
        </mxCell>
        <mxCell id="-MrWlAkrLKYYtXTXgUd7-144" style="edgeStyle=none;curved=1;rounded=0;orthogonalLoop=1;jettySize=auto;html=1;exitX=0.5;exitY=1;exitDx=0;exitDy=0;entryX=0.5;entryY=0;entryDx=0;entryDy=0;fontSize=12;startSize=8;endSize=8;" parent="WIyWlLk6GJQsqaUBKTNV-1" source="-MrWlAkrLKYYtXTXgUd7-145" target="-MrWlAkrLKYYtXTXgUd7-147" edge="1">
          <mxGeometry relative="1" as="geometry" />
        </mxCell>
        <mxCell id="-MrWlAkrLKYYtXTXgUd7-145" value="V1 = V_initial;" style="rounded=0;whiteSpace=wrap;html=1;fillColor=#d5e8d4;strokeColor=#82b366;" parent="WIyWlLk6GJQsqaUBKTNV-1" vertex="1">
          <mxGeometry x="132.98000000000002" y="1520" width="120" height="30" as="geometry" />
        </mxCell>
        <mxCell id="-MrWlAkrLKYYtXTXgUd7-146" style="edgeStyle=none;curved=1;rounded=0;orthogonalLoop=1;jettySize=auto;html=1;exitX=0.5;exitY=1;exitDx=0;exitDy=0;entryX=0.5;entryY=0;entryDx=0;entryDy=0;fontSize=12;startSize=8;endSize=8;" parent="WIyWlLk6GJQsqaUBKTNV-1" source="-MrWlAkrLKYYtXTXgUd7-147" target="-MrWlAkrLKYYtXTXgUd7-149" edge="1">
          <mxGeometry relative="1" as="geometry" />
        </mxCell>
        <mxCell id="-MrWlAkrLKYYtXTXgUd7-147" value="j = 0; j &amp;lt; n + 1; j++" style="shape=hexagon;perimeter=hexagonPerimeter2;whiteSpace=wrap;html=1;fixedSize=1;fillColor=#e1d5e7;strokeColor=#9673a6;" parent="WIyWlLk6GJQsqaUBKTNV-1" vertex="1">
          <mxGeometry x="90.62000000000005" y="1584" width="205" height="30" as="geometry" />
        </mxCell>
        <mxCell id="-MrWlAkrLKYYtXTXgUd7-148" style="edgeStyle=none;curved=1;rounded=0;orthogonalLoop=1;jettySize=auto;html=1;exitX=0.5;exitY=1;exitDx=0;exitDy=0;entryX=0.5;entryY=0;entryDx=0;entryDy=0;fontSize=12;startSize=8;endSize=8;" parent="WIyWlLk6GJQsqaUBKTNV-1" source="-MrWlAkrLKYYtXTXgUd7-149" target="-MrWlAkrLKYYtXTXgUd7-155" edge="1">
          <mxGeometry relative="1" as="geometry" />
        </mxCell>
        <mxCell id="-MrWlAkrLKYYtXTXgUd7-149" value="&lt;div&gt;H2 = H1 + dH&lt;/div&gt;" style="rounded=0;whiteSpace=wrap;html=1;fillColor=#d5e8d4;strokeColor=#82b366;" parent="WIyWlLk6GJQsqaUBKTNV-1" vertex="1">
          <mxGeometry x="90.62000000000005" y="1634" width="205" height="20" as="geometry" />
        </mxCell>
        <mxCell id="-MrWlAkrLKYYtXTXgUd7-150" value="H1 = H2" style="rounded=0;whiteSpace=wrap;html=1;fillColor=#d5e8d4;strokeColor=#82b366;" parent="WIyWlLk6GJQsqaUBKTNV-1" vertex="1">
          <mxGeometry x="133.12000000000012" y="1810" width="120" height="30" as="geometry" />
        </mxCell>
        <mxCell id="-MrWlAkrLKYYtXTXgUd7-168" value="" style="edgeStyle=none;curved=1;rounded=0;orthogonalLoop=1;jettySize=auto;html=1;fontSize=12;startSize=8;endSize=8;exitX=0.5;exitY=1;exitDx=0;exitDy=0;" parent="WIyWlLk6GJQsqaUBKTNV-1" source="-MrWlAkrLKYYtXTXgUd7-296" target="-MrWlAkrLKYYtXTXgUd7-167" edge="1">
          <mxGeometry relative="1" as="geometry">
            <mxPoint x="193.46727272727276" y="1990" as="sourcePoint" />
          </mxGeometry>
        </mxCell>
        <mxCell id="-MrWlAkrLKYYtXTXgUd7-154" style="edgeStyle=none;curved=1;rounded=0;orthogonalLoop=1;jettySize=auto;html=1;exitX=0.5;exitY=1;exitDx=0;exitDy=0;entryX=0.5;entryY=0;entryDx=0;entryDy=0;fontSize=12;startSize=8;endSize=8;" parent="WIyWlLk6GJQsqaUBKTNV-1" source="-MrWlAkrLKYYtXTXgUd7-155" target="-MrWlAkrLKYYtXTXgUd7-156" edge="1">
          <mxGeometry relative="1" as="geometry" />
        </mxCell>
        <mxCell id="-MrWlAkrLKYYtXTXgUd7-155" value="t2[i][j] = lift_time(H1, H2, V);" style="shape=process;whiteSpace=wrap;html=1;backgroundOutline=1;fontSize=16;fillColor=#d5e8d4;strokeColor=#82b366;" parent="WIyWlLk6GJQsqaUBKTNV-1" vertex="1">
          <mxGeometry x="63.12000000000005" y="1680" width="260" height="25" as="geometry" />
        </mxCell>
        <mxCell id="-MrWlAkrLKYYtXTXgUd7-156" value="V = V + dV" style="rounded=0;whiteSpace=wrap;html=1;fontSize=16;fillColor=#d5e8d4;strokeColor=#82b366;" parent="WIyWlLk6GJQsqaUBKTNV-1" vertex="1">
          <mxGeometry x="133.12" y="1738" width="120" height="22" as="geometry" />
        </mxCell>
        <mxCell id="-MrWlAkrLKYYtXTXgUd7-157" style="edgeStyle=none;curved=1;rounded=0;orthogonalLoop=1;jettySize=auto;html=1;exitX=0.5;exitY=1;exitDx=0;exitDy=0;fontSize=12;startSize=8;endSize=8;" parent="WIyWlLk6GJQsqaUBKTNV-1" source="-MrWlAkrLKYYtXTXgUd7-150" target="-MrWlAkrLKYYtXTXgUd7-150" edge="1">
          <mxGeometry relative="1" as="geometry" />
        </mxCell>
        <mxCell id="-MrWlAkrLKYYtXTXgUd7-158" style="edgeStyle=orthogonalEdgeStyle;rounded=0;orthogonalLoop=1;jettySize=auto;html=1;entryX=0;entryY=0.5;entryDx=0;entryDy=0;" parent="WIyWlLk6GJQsqaUBKTNV-1" source="-MrWlAkrLKYYtXTXgUd7-156" target="-MrWlAkrLKYYtXTXgUd7-147" edge="1">
          <mxGeometry relative="1" as="geometry">
            <Array as="points">
              <mxPoint x="193.46000000000004" y="1780" />
              <mxPoint x="42.46000000000002" y="1780" />
              <mxPoint x="42.46000000000002" y="1599" />
            </Array>
            <mxPoint x="193.37000000000012" y="1764" as="sourcePoint" />
            <mxPoint x="13.36000000000006" y="1599" as="targetPoint" />
          </mxGeometry>
        </mxCell>
        <mxCell id="-MrWlAkrLKYYtXTXgUd7-159" style="edgeStyle=orthogonalEdgeStyle;rounded=0;orthogonalLoop=1;jettySize=auto;html=1;exitX=1;exitY=0.5;exitDx=0;exitDy=0;entryX=0.5;entryY=0;entryDx=0;entryDy=0;" parent="WIyWlLk6GJQsqaUBKTNV-1" source="-MrWlAkrLKYYtXTXgUd7-147" target="-MrWlAkrLKYYtXTXgUd7-150" edge="1">
          <mxGeometry relative="1" as="geometry">
            <mxPoint x="372.5500000000002" y="1590" as="sourcePoint" />
            <mxPoint x="280.05000000000007" y="1745" as="targetPoint" />
            <Array as="points">
              <mxPoint x="342.46000000000004" y="1599" />
              <mxPoint x="342.46000000000004" y="1790" />
              <mxPoint x="193.46000000000004" y="1790" />
            </Array>
          </mxGeometry>
        </mxCell>
        <mxCell id="-MrWlAkrLKYYtXTXgUd7-160" style="edgeStyle=orthogonalEdgeStyle;rounded=0;orthogonalLoop=1;jettySize=auto;html=1;exitX=0.5;exitY=1;exitDx=0;exitDy=0;entryX=0;entryY=0.5;entryDx=0;entryDy=0;" parent="WIyWlLk6GJQsqaUBKTNV-1" source="-MrWlAkrLKYYtXTXgUd7-150" target="-MrWlAkrLKYYtXTXgUd7-143" edge="1">
          <mxGeometry relative="1" as="geometry">
            <Array as="points">
              <mxPoint x="193.46000000000004" y="1886" />
              <mxPoint x="22.460000000000026" y="1886" />
              <mxPoint x="22.460000000000026" y="1475" />
            </Array>
            <mxPoint x="192.29000000000008" y="1865" as="sourcePoint" />
            <mxPoint x="89.37000000000005" y="1490" as="targetPoint" />
          </mxGeometry>
        </mxCell>
        <mxCell id="-MrWlAkrLKYYtXTXgUd7-161" style="edgeStyle=orthogonalEdgeStyle;rounded=0;orthogonalLoop=1;jettySize=auto;html=1;exitX=1;exitY=0.5;exitDx=0;exitDy=0;" parent="WIyWlLk6GJQsqaUBKTNV-1" source="-MrWlAkrLKYYtXTXgUd7-143" target="-MrWlAkrLKYYtXTXgUd7-296" edge="1">
          <mxGeometry relative="1" as="geometry">
            <mxPoint x="329.51" y="1634" as="sourcePoint" />
            <mxPoint x="193.6500000000001" y="1930" as="targetPoint" />
            <Array as="points">
              <mxPoint x="362" y="1475" />
              <mxPoint x="362" y="1900" />
              <mxPoint x="193" y="1900" />
            </Array>
          </mxGeometry>
        </mxCell>
        <mxCell id="-MrWlAkrLKYYtXTXgUd7-162" value="&lt;font style=&quot;font-size: 23px;&quot;&gt;^&lt;/font&gt;" style="ellipse;whiteSpace=wrap;html=1;aspect=fixed;fillColor=#e51400;strokeColor=#B20000;fontColor=#ffffff;" parent="WIyWlLk6GJQsqaUBKTNV-1" vertex="1">
          <mxGeometry x="296.68" y="1729" width="31" height="31" as="geometry" />
        </mxCell>
        <mxCell id="-MrWlAkrLKYYtXTXgUd7-165" style="edgeStyle=none;curved=1;rounded=0;orthogonalLoop=1;jettySize=auto;html=1;exitX=0.5;exitY=1;exitDx=0;exitDy=0;fontSize=12;startSize=8;endSize=8;" parent="WIyWlLk6GJQsqaUBKTNV-1" source="-MrWlAkrLKYYtXTXgUd7-124" target="-MrWlAkrLKYYtXTXgUd7-124" edge="1">
          <mxGeometry relative="1" as="geometry" />
        </mxCell>
        <mxCell id="-MrWlAkrLKYYtXTXgUd7-167" value="&lt;span style=&quot;font-size: 30px;&quot;&gt;B&lt;br&gt;&lt;/span&gt;" style="ellipse;whiteSpace=wrap;html=1;aspect=fixed;fillColor=#e51400;fontColor=#ffffff;strokeColor=#B20000;" parent="WIyWlLk6GJQsqaUBKTNV-1" vertex="1">
          <mxGeometry x="167.98000000000005" y="2070" width="50" height="50" as="geometry" />
        </mxCell>
        <mxCell id="-MrWlAkrLKYYtXTXgUd7-212" style="edgeStyle=none;curved=1;rounded=0;orthogonalLoop=1;jettySize=auto;html=1;exitX=0.5;exitY=1;exitDx=0;exitDy=0;entryX=0.5;entryY=0;entryDx=0;entryDy=0;fontSize=12;startSize=8;endSize=8;" parent="WIyWlLk6GJQsqaUBKTNV-1" source="-MrWlAkrLKYYtXTXgUd7-213" target="-MrWlAkrLKYYtXTXgUd7-215" edge="1">
          <mxGeometry relative="1" as="geometry" />
        </mxCell>
        <mxCell id="-MrWlAkrLKYYtXTXgUd7-213" value="&lt;font style=&quot;font-size: 30px;&quot;&gt;B&lt;/font&gt;" style="ellipse;whiteSpace=wrap;html=1;aspect=fixed;fillColor=#e51400;fontColor=#ffffff;strokeColor=#B20000;" parent="WIyWlLk6GJQsqaUBKTNV-1" vertex="1">
          <mxGeometry x="596.3200000000002" y="1280" width="50" height="50" as="geometry" />
        </mxCell>
        <mxCell id="-MrWlAkrLKYYtXTXgUd7-214" style="edgeStyle=none;curved=1;rounded=0;orthogonalLoop=1;jettySize=auto;html=1;exitX=0.5;exitY=1;exitDx=0;exitDy=0;entryX=0.5;entryY=0;entryDx=0;entryDy=0;fontSize=12;startSize=8;endSize=8;" parent="WIyWlLk6GJQsqaUBKTNV-1" source="-MrWlAkrLKYYtXTXgUd7-215" target="-MrWlAkrLKYYtXTXgUd7-217" edge="1">
          <mxGeometry relative="1" as="geometry" />
        </mxCell>
        <mxCell id="-MrWlAkrLKYYtXTXgUd7-215" value="H1 = H_initial;" style="rounded=0;whiteSpace=wrap;html=1;fillColor=#d5e8d4;strokeColor=#82b366;" parent="WIyWlLk6GJQsqaUBKTNV-1" vertex="1">
          <mxGeometry x="565.6500000000001" y="1390" width="110" height="30" as="geometry" />
        </mxCell>
        <mxCell id="-MrWlAkrLKYYtXTXgUd7-216" style="edgeStyle=none;curved=1;rounded=0;orthogonalLoop=1;jettySize=auto;html=1;exitX=0.5;exitY=1;exitDx=0;exitDy=0;entryX=0.5;entryY=0;entryDx=0;entryDy=0;fontSize=12;startSize=8;endSize=8;" parent="WIyWlLk6GJQsqaUBKTNV-1" source="-MrWlAkrLKYYtXTXgUd7-217" target="-MrWlAkrLKYYtXTXgUd7-219" edge="1">
          <mxGeometry relative="1" as="geometry" />
        </mxCell>
        <mxCell id="-MrWlAkrLKYYtXTXgUd7-217" value="i = 0; i &amp;lt; n; i++" style="shape=hexagon;perimeter=hexagonPerimeter2;whiteSpace=wrap;html=1;fixedSize=1;fillColor=#e1d5e7;strokeColor=#9673a6;" parent="WIyWlLk6GJQsqaUBKTNV-1" vertex="1">
          <mxGeometry x="518.1500000000001" y="1460" width="205" height="30" as="geometry" />
        </mxCell>
        <mxCell id="-MrWlAkrLKYYtXTXgUd7-218" style="edgeStyle=none;curved=1;rounded=0;orthogonalLoop=1;jettySize=auto;html=1;exitX=0.5;exitY=1;exitDx=0;exitDy=0;entryX=0.5;entryY=0;entryDx=0;entryDy=0;fontSize=12;startSize=8;endSize=8;" parent="WIyWlLk6GJQsqaUBKTNV-1" source="-MrWlAkrLKYYtXTXgUd7-219" target="-MrWlAkrLKYYtXTXgUd7-221" edge="1">
          <mxGeometry relative="1" as="geometry" />
        </mxCell>
        <mxCell id="-MrWlAkrLKYYtXTXgUd7-219" value="V1 = V_initial;" style="rounded=0;whiteSpace=wrap;html=1;fillColor=#d5e8d4;strokeColor=#82b366;" parent="WIyWlLk6GJQsqaUBKTNV-1" vertex="1">
          <mxGeometry x="560.6500000000001" y="1520" width="120" height="30" as="geometry" />
        </mxCell>
        <mxCell id="-MrWlAkrLKYYtXTXgUd7-220" style="edgeStyle=none;curved=1;rounded=0;orthogonalLoop=1;jettySize=auto;html=1;exitX=0.5;exitY=1;exitDx=0;exitDy=0;entryX=0.5;entryY=0;entryDx=0;entryDy=0;fontSize=12;startSize=8;endSize=8;" parent="WIyWlLk6GJQsqaUBKTNV-1" source="-MrWlAkrLKYYtXTXgUd7-221" target="-MrWlAkrLKYYtXTXgUd7-223" edge="1">
          <mxGeometry relative="1" as="geometry" />
        </mxCell>
        <mxCell id="-MrWlAkrLKYYtXTXgUd7-221" value="j = 0; j &amp;lt; n; j++" style="shape=hexagon;perimeter=hexagonPerimeter2;whiteSpace=wrap;html=1;fixedSize=1;fillColor=#e1d5e7;strokeColor=#9673a6;" parent="WIyWlLk6GJQsqaUBKTNV-1" vertex="1">
          <mxGeometry x="518.2900000000001" y="1584" width="205" height="30" as="geometry" />
        </mxCell>
        <mxCell id="-MrWlAkrLKYYtXTXgUd7-222" style="edgeStyle=none;curved=1;rounded=0;orthogonalLoop=1;jettySize=auto;html=1;exitX=0.5;exitY=1;exitDx=0;exitDy=0;entryX=0.5;entryY=0;entryDx=0;entryDy=0;fontSize=12;startSize=8;endSize=8;" parent="WIyWlLk6GJQsqaUBKTNV-1" source="-MrWlAkrLKYYtXTXgUd7-223" target="-MrWlAkrLKYYtXTXgUd7-228" edge="1">
          <mxGeometry relative="1" as="geometry" />
        </mxCell>
        <mxCell id="-MrWlAkrLKYYtXTXgUd7-223" value="&lt;div&gt;V2 = V1 + dV&lt;/div&gt;&lt;div&gt;H2 = H1 + dH&lt;/div&gt;" style="rounded=0;whiteSpace=wrap;html=1;fillColor=#d5e8d4;strokeColor=#82b366;" parent="WIyWlLk6GJQsqaUBKTNV-1" vertex="1">
          <mxGeometry x="518.29" y="1634" width="205" height="36" as="geometry" />
        </mxCell>
        <mxCell id="-MrWlAkrLKYYtXTXgUd7-224" value="H1 = H2" style="rounded=0;whiteSpace=wrap;html=1;fillColor=#d5e8d4;strokeColor=#82b366;" parent="WIyWlLk6GJQsqaUBKTNV-1" vertex="1">
          <mxGeometry x="560.7900000000002" y="1810" width="120" height="30" as="geometry" />
        </mxCell>
        <mxCell id="-MrWlAkrLKYYtXTXgUd7-225" value="" style="edgeStyle=none;curved=1;rounded=0;orthogonalLoop=1;jettySize=auto;html=1;fontSize=12;startSize=8;endSize=8;exitX=0.5;exitY=1;exitDx=0;exitDy=0;" parent="WIyWlLk6GJQsqaUBKTNV-1" source="-MrWlAkrLKYYtXTXgUd7-304" target="-MrWlAkrLKYYtXTXgUd7-237" edge="1">
          <mxGeometry relative="1" as="geometry">
            <mxPoint x="621" y="1990" as="sourcePoint" />
          </mxGeometry>
        </mxCell>
        <mxCell id="-MrWlAkrLKYYtXTXgUd7-227" style="edgeStyle=none;curved=1;rounded=0;orthogonalLoop=1;jettySize=auto;html=1;exitX=0.5;exitY=1;exitDx=0;exitDy=0;entryX=0.5;entryY=0;entryDx=0;entryDy=0;fontSize=12;startSize=8;endSize=8;" parent="WIyWlLk6GJQsqaUBKTNV-1" source="-MrWlAkrLKYYtXTXgUd7-228" target="-MrWlAkrLKYYtXTXgUd7-229" edge="1">
          <mxGeometry relative="1" as="geometry" />
        </mxCell>
        <mxCell id="-MrWlAkrLKYYtXTXgUd7-228" value="t3[i][j] = a_l_time(V1, V2, H1, H2);" style="shape=process;whiteSpace=wrap;html=1;backgroundOutline=1;fontSize=16;fillColor=#d5e8d4;strokeColor=#82b366;" parent="WIyWlLk6GJQsqaUBKTNV-1" vertex="1">
          <mxGeometry x="467.31" y="1690" width="308.02" height="25" as="geometry" />
        </mxCell>
        <mxCell id="-MrWlAkrLKYYtXTXgUd7-229" value="V1 = V2" style="rounded=0;whiteSpace=wrap;html=1;fontSize=16;fillColor=#d5e8d4;strokeColor=#82b366;" parent="WIyWlLk6GJQsqaUBKTNV-1" vertex="1">
          <mxGeometry x="560.79" y="1738" width="120" height="22" as="geometry" />
        </mxCell>
        <mxCell id="-MrWlAkrLKYYtXTXgUd7-230" style="edgeStyle=none;curved=1;rounded=0;orthogonalLoop=1;jettySize=auto;html=1;exitX=0.5;exitY=1;exitDx=0;exitDy=0;fontSize=12;startSize=8;endSize=8;" parent="WIyWlLk6GJQsqaUBKTNV-1" source="-MrWlAkrLKYYtXTXgUd7-224" target="-MrWlAkrLKYYtXTXgUd7-224" edge="1">
          <mxGeometry relative="1" as="geometry" />
        </mxCell>
        <mxCell id="-MrWlAkrLKYYtXTXgUd7-231" style="edgeStyle=orthogonalEdgeStyle;rounded=0;orthogonalLoop=1;jettySize=auto;html=1;entryX=0;entryY=0.5;entryDx=0;entryDy=0;" parent="WIyWlLk6GJQsqaUBKTNV-1" source="-MrWlAkrLKYYtXTXgUd7-229" target="-MrWlAkrLKYYtXTXgUd7-221" edge="1">
          <mxGeometry relative="1" as="geometry">
            <Array as="points">
              <mxPoint x="621" y="1780" />
              <mxPoint x="460" y="1780" />
              <mxPoint x="460" y="1599" />
            </Array>
            <mxPoint x="621.0400000000002" y="1764" as="sourcePoint" />
            <mxPoint x="441.0300000000001" y="1599" as="targetPoint" />
          </mxGeometry>
        </mxCell>
        <mxCell id="-MrWlAkrLKYYtXTXgUd7-232" style="edgeStyle=orthogonalEdgeStyle;rounded=0;orthogonalLoop=1;jettySize=auto;html=1;exitX=1;exitY=0.5;exitDx=0;exitDy=0;entryX=0.5;entryY=0;entryDx=0;entryDy=0;" parent="WIyWlLk6GJQsqaUBKTNV-1" source="-MrWlAkrLKYYtXTXgUd7-221" target="-MrWlAkrLKYYtXTXgUd7-224" edge="1">
          <mxGeometry relative="1" as="geometry">
            <mxPoint x="800.2200000000003" y="1590" as="sourcePoint" />
            <mxPoint x="707.72" y="1745" as="targetPoint" />
            <Array as="points">
              <mxPoint x="780" y="1599" />
              <mxPoint x="780" y="1790" />
              <mxPoint x="621" y="1790" />
            </Array>
          </mxGeometry>
        </mxCell>
        <mxCell id="-MrWlAkrLKYYtXTXgUd7-233" style="edgeStyle=orthogonalEdgeStyle;rounded=0;orthogonalLoop=1;jettySize=auto;html=1;exitX=0.5;exitY=1;exitDx=0;exitDy=0;entryX=0;entryY=0.5;entryDx=0;entryDy=0;" parent="WIyWlLk6GJQsqaUBKTNV-1" source="-MrWlAkrLKYYtXTXgUd7-224" target="-MrWlAkrLKYYtXTXgUd7-217" edge="1">
          <mxGeometry relative="1" as="geometry">
            <Array as="points">
              <mxPoint x="621" y="1886" />
              <mxPoint x="440" y="1886" />
              <mxPoint x="440" y="1475" />
            </Array>
            <mxPoint x="619.96" y="1865" as="sourcePoint" />
            <mxPoint x="517.0400000000001" y="1490" as="targetPoint" />
          </mxGeometry>
        </mxCell>
        <mxCell id="-MrWlAkrLKYYtXTXgUd7-234" style="edgeStyle=orthogonalEdgeStyle;rounded=0;orthogonalLoop=1;jettySize=auto;html=1;exitX=1;exitY=0.5;exitDx=0;exitDy=0;entryX=0.5;entryY=0;entryDx=0;entryDy=0;" parent="WIyWlLk6GJQsqaUBKTNV-1" source="-MrWlAkrLKYYtXTXgUd7-217" target="-MrWlAkrLKYYtXTXgUd7-304" edge="1">
          <mxGeometry relative="1" as="geometry">
            <mxPoint x="757.1800000000001" y="1634" as="sourcePoint" />
            <mxPoint x="621.3200000000002" y="1930" as="targetPoint" />
            <Array as="points">
              <mxPoint x="800" y="1475" />
              <mxPoint x="800" y="1900" />
              <mxPoint x="621" y="1900" />
            </Array>
          </mxGeometry>
        </mxCell>
        <mxCell id="-MrWlAkrLKYYtXTXgUd7-235" value="&lt;font style=&quot;font-size: 23px;&quot;&gt;&amp;gt;^&lt;/font&gt;" style="ellipse;whiteSpace=wrap;html=1;aspect=fixed;fillColor=#e51400;strokeColor=#B20000;fontColor=#ffffff;" parent="WIyWlLk6GJQsqaUBKTNV-1" vertex="1">
          <mxGeometry x="744.33" y="1738" width="31" height="31" as="geometry" />
        </mxCell>
        <mxCell id="-MrWlAkrLKYYtXTXgUd7-236" style="edgeStyle=none;curved=1;rounded=0;orthogonalLoop=1;jettySize=auto;html=1;exitX=0.5;exitY=1;exitDx=0;exitDy=0;fontSize=12;startSize=8;endSize=8;" parent="WIyWlLk6GJQsqaUBKTNV-1" source="-MrWlAkrLKYYtXTXgUd7-213" target="-MrWlAkrLKYYtXTXgUd7-213" edge="1">
          <mxGeometry relative="1" as="geometry" />
        </mxCell>
        <mxCell id="-MrWlAkrLKYYtXTXgUd7-237" value="&lt;span style=&quot;font-size: 30px;&quot;&gt;C&lt;br&gt;&lt;/span&gt;" style="ellipse;whiteSpace=wrap;html=1;aspect=fixed;fillColor=#e51400;fontColor=#ffffff;strokeColor=#B20000;" parent="WIyWlLk6GJQsqaUBKTNV-1" vertex="1">
          <mxGeometry x="595.6500000000001" y="2070" width="50" height="50" as="geometry" />
        </mxCell>
        <mxCell id="-MrWlAkrLKYYtXTXgUd7-257" value="Конец" style="strokeWidth=2;html=1;shape=mxgraph.flowchart.start_1;whiteSpace=wrap;fillColor=#dae8fc;strokeColor=#6c8ebf;" parent="WIyWlLk6GJQsqaUBKTNV-1" vertex="1">
          <mxGeometry x="690" y="3101.5" width="90.94" height="46.5" as="geometry" />
        </mxCell>
        <mxCell id="-MrWlAkrLKYYtXTXgUd7-292" value="" style="edgeStyle=none;curved=1;rounded=0;orthogonalLoop=1;jettySize=auto;html=1;fontSize=12;startSize=8;endSize=8;entryX=0.5;entryY=0;entryDx=0;entryDy=0;" parent="WIyWlLk6GJQsqaUBKTNV-1" source="-MrWlAkrLKYYtXTXgUd7-263" target="-MrWlAkrLKYYtXTXgUd7-342" edge="1">
          <mxGeometry relative="1" as="geometry">
            <mxPoint x="401.9" y="3660" as="targetPoint" />
          </mxGeometry>
        </mxCell>
        <mxCell id="-MrWlAkrLKYYtXTXgUd7-263" value="&lt;font style=&quot;font-size: 30px;&quot;&gt;O&lt;br&gt;&lt;/font&gt;" style="ellipse;whiteSpace=wrap;html=1;aspect=fixed;fillColor=#e51400;fontColor=#ffffff;strokeColor=#B20000;" parent="WIyWlLk6GJQsqaUBKTNV-1" vertex="1">
          <mxGeometry x="376.96999999999997" y="3580" width="50" height="50" as="geometry" />
        </mxCell>
        <mxCell id="-MrWlAkrLKYYtXTXgUd7-265" value="i = 0; i &amp;lt; n + 1; i++" style="shape=hexagon;perimeter=hexagonPerimeter2;whiteSpace=wrap;html=1;fixedSize=1;fillColor=#e1d5e7;strokeColor=#9673a6;" parent="WIyWlLk6GJQsqaUBKTNV-1" vertex="1">
          <mxGeometry x="299.4" y="3740" width="205" height="30" as="geometry" />
        </mxCell>
        <mxCell id="-MrWlAkrLKYYtXTXgUd7-289" style="edgeStyle=none;curved=1;rounded=0;orthogonalLoop=1;jettySize=auto;html=1;exitX=0.5;exitY=1;exitDx=0;exitDy=0;fontSize=12;startSize=8;endSize=8;" parent="WIyWlLk6GJQsqaUBKTNV-1" source="-MrWlAkrLKYYtXTXgUd7-269" target="-MrWlAkrLKYYtXTXgUd7-288" edge="1">
          <mxGeometry relative="1" as="geometry" />
        </mxCell>
        <mxCell id="-MrWlAkrLKYYtXTXgUd7-269" value="j = 0; j &amp;lt; n; j++" style="shape=hexagon;perimeter=hexagonPerimeter2;whiteSpace=wrap;html=1;fixedSize=1;fillColor=#e1d5e7;strokeColor=#9673a6;" parent="WIyWlLk6GJQsqaUBKTNV-1" vertex="1">
          <mxGeometry x="299.4" y="3790" width="205" height="30" as="geometry" />
        </mxCell>
        <mxCell id="-MrWlAkrLKYYtXTXgUd7-277" style="edgeStyle=none;curved=1;rounded=0;orthogonalLoop=1;jettySize=auto;html=1;exitX=0.5;exitY=1;exitDx=0;exitDy=0;fontSize=12;startSize=8;endSize=8;" parent="WIyWlLk6GJQsqaUBKTNV-1" edge="1">
          <mxGeometry relative="1" as="geometry">
            <mxPoint x="239.20000000000007" y="4100" as="sourcePoint" />
            <mxPoint x="239.20000000000007" y="4100" as="targetPoint" />
          </mxGeometry>
        </mxCell>
        <mxCell id="-MrWlAkrLKYYtXTXgUd7-278" style="edgeStyle=orthogonalEdgeStyle;rounded=0;orthogonalLoop=1;jettySize=auto;html=1;entryX=0;entryY=0.5;entryDx=0;entryDy=0;exitX=0.5;exitY=1;exitDx=0;exitDy=0;" parent="WIyWlLk6GJQsqaUBKTNV-1" source="-MrWlAkrLKYYtXTXgUd7-288" target="-MrWlAkrLKYYtXTXgUd7-269" edge="1">
          <mxGeometry relative="1" as="geometry">
            <Array as="points">
              <mxPoint x="401.80999999999995" y="3900" />
              <mxPoint x="276.80999999999995" y="3900" />
              <mxPoint x="276.80999999999995" y="3805" />
            </Array>
            <mxPoint x="427.6433333333332" y="4039" as="sourcePoint" />
            <mxPoint x="247.82999999999998" y="3879" as="targetPoint" />
          </mxGeometry>
        </mxCell>
        <mxCell id="-MrWlAkrLKYYtXTXgUd7-279" style="edgeStyle=orthogonalEdgeStyle;rounded=0;orthogonalLoop=1;jettySize=auto;html=1;exitX=1;exitY=0.5;exitDx=0;exitDy=0;entryX=0.5;entryY=0;entryDx=0;entryDy=0;" parent="WIyWlLk6GJQsqaUBKTNV-1" source="-MrWlAkrLKYYtXTXgUd7-269" target="-MrWlAkrLKYYtXTXgUd7-290" edge="1">
          <mxGeometry relative="1" as="geometry">
            <mxPoint x="607.0200000000002" y="3870" as="sourcePoint" />
            <mxPoint x="427.59000000000003" y="4090" as="targetPoint" />
            <Array as="points">
              <mxPoint x="526.8100000000001" y="3805" />
              <mxPoint x="526.8100000000001" y="3910" />
              <mxPoint x="401.80999999999995" y="3910" />
            </Array>
          </mxGeometry>
        </mxCell>
        <mxCell id="-MrWlAkrLKYYtXTXgUd7-280" style="edgeStyle=orthogonalEdgeStyle;rounded=0;orthogonalLoop=1;jettySize=auto;html=1;exitX=0.5;exitY=1;exitDx=0;exitDy=0;entryX=0;entryY=0.5;entryDx=0;entryDy=0;" parent="WIyWlLk6GJQsqaUBKTNV-1" source="-MrWlAkrLKYYtXTXgUd7-290" target="-MrWlAkrLKYYtXTXgUd7-265" edge="1">
          <mxGeometry relative="1" as="geometry">
            <Array as="points">
              <mxPoint x="401.80999999999995" y="3980" />
              <mxPoint x="256.80999999999995" y="3980" />
              <mxPoint x="256.80999999999995" y="3755" />
            </Array>
            <mxPoint x="427.59000000000003" y="4120" as="sourcePoint" />
            <mxPoint x="323.84000000000003" y="3770" as="targetPoint" />
          </mxGeometry>
        </mxCell>
        <mxCell id="-MrWlAkrLKYYtXTXgUd7-281" style="edgeStyle=orthogonalEdgeStyle;rounded=0;orthogonalLoop=1;jettySize=auto;html=1;exitX=1;exitY=0.5;exitDx=0;exitDy=0;" parent="WIyWlLk6GJQsqaUBKTNV-1" source="-MrWlAkrLKYYtXTXgUd7-265" edge="1">
          <mxGeometry relative="1" as="geometry">
            <mxPoint x="513.69" y="3630" as="sourcePoint" />
            <mxPoint x="401.9" y="4011.5" as="targetPoint" />
            <Array as="points">
              <mxPoint x="545.6600000000001" y="3755" />
              <mxPoint x="545.6600000000001" y="3990" />
              <mxPoint x="402.65999999999997" y="3990" />
            </Array>
          </mxGeometry>
        </mxCell>
        <mxCell id="-MrWlAkrLKYYtXTXgUd7-288" value="printf(&quot;%.2lf\t&quot;, matrix[i][j]);" style="shape=parallelogram;perimeter=parallelogramPerimeter;whiteSpace=wrap;html=1;fixedSize=1;fontSize=16;fillColor=#bac8d3;strokeColor=#23445d;" parent="WIyWlLk6GJQsqaUBKTNV-1" vertex="1">
          <mxGeometry x="294.77" y="3850" width="214.26" height="30" as="geometry" />
        </mxCell>
        <mxCell id="-MrWlAkrLKYYtXTXgUd7-290" value="printf(&quot;\n&quot;);" style="shape=parallelogram;perimeter=parallelogramPerimeter;whiteSpace=wrap;html=1;fixedSize=1;fontSize=16;fillColor=#bac8d3;strokeColor=#23445d;" parent="WIyWlLk6GJQsqaUBKTNV-1" vertex="1">
          <mxGeometry x="325.88" y="3930" width="152.04" height="30" as="geometry" />
        </mxCell>
        <mxCell id="-MrWlAkrLKYYtXTXgUd7-294" style="edgeStyle=none;curved=1;rounded=0;orthogonalLoop=1;jettySize=auto;html=1;exitX=0.5;exitY=1;exitDx=0;exitDy=0;entryX=0.5;entryY=0;entryDx=0;entryDy=0;fontSize=12;startSize=8;endSize=8;" parent="WIyWlLk6GJQsqaUBKTNV-1" source="-MrWlAkrLKYYtXTXgUd7-342" target="-MrWlAkrLKYYtXTXgUd7-265" edge="1">
          <mxGeometry relative="1" as="geometry">
            <mxPoint x="401.9" y="3710" as="sourcePoint" />
          </mxGeometry>
        </mxCell>
        <mxCell id="-MrWlAkrLKYYtXTXgUd7-300" style="edgeStyle=none;curved=1;rounded=0;orthogonalLoop=1;jettySize=auto;html=1;exitX=1;exitY=0.5;exitDx=0;exitDy=0;fontSize=12;startSize=8;endSize=8;" parent="WIyWlLk6GJQsqaUBKTNV-1" source="-MrWlAkrLKYYtXTXgUd7-296" target="-MrWlAkrLKYYtXTXgUd7-299" edge="1">
          <mxGeometry relative="1" as="geometry" />
        </mxCell>
        <mxCell id="-MrWlAkrLKYYtXTXgUd7-296" value="&lt;div&gt;&lt;span style=&quot;background-color: initial;&quot;&gt;printMatrix(t2, n, n+1);&lt;/span&gt;&lt;br&gt;&lt;/div&gt;" style="shape=process;whiteSpace=wrap;html=1;backgroundOutline=1;fontSize=16;fillColor=#d5e8d4;strokeColor=#82b366;" parent="WIyWlLk6GJQsqaUBKTNV-1" vertex="1">
          <mxGeometry x="78.97" y="1930" width="228.03" height="60" as="geometry" />
        </mxCell>
        <mxCell id="-MrWlAkrLKYYtXTXgUd7-299" value="&lt;span style=&quot;font-size: 30px;&quot;&gt;O&lt;br&gt;&lt;/span&gt;" style="ellipse;whiteSpace=wrap;html=1;aspect=fixed;fillColor=#e51400;fontColor=#ffffff;strokeColor=#B20000;" parent="WIyWlLk6GJQsqaUBKTNV-1" vertex="1">
          <mxGeometry x="332.69000000000005" y="1935" width="50" height="50" as="geometry" />
        </mxCell>
        <mxCell id="-MrWlAkrLKYYtXTXgUd7-301" style="edgeStyle=none;curved=1;rounded=0;orthogonalLoop=1;jettySize=auto;html=1;exitX=1;exitY=0.5;exitDx=0;exitDy=0;fontSize=12;startSize=8;endSize=8;" parent="WIyWlLk6GJQsqaUBKTNV-1" source="-MrWlAkrLKYYtXTXgUd7-302" target="-MrWlAkrLKYYtXTXgUd7-303" edge="1">
          <mxGeometry relative="1" as="geometry" />
        </mxCell>
        <mxCell id="-MrWlAkrLKYYtXTXgUd7-302" value="&lt;div&gt;&lt;span style=&quot;background-color: initial;&quot;&gt;printMatrix(t1, n+1, n);&lt;/span&gt;&lt;br&gt;&lt;/div&gt;" style="shape=process;whiteSpace=wrap;html=1;backgroundOutline=1;fontSize=16;fillColor=#d5e8d4;strokeColor=#82b366;" parent="WIyWlLk6GJQsqaUBKTNV-1" vertex="1">
          <mxGeometry x="295.62" y="930" width="228.03" height="60" as="geometry" />
        </mxCell>
        <mxCell id="-MrWlAkrLKYYtXTXgUd7-303" value="&lt;span style=&quot;font-size: 30px;&quot;&gt;O&lt;br&gt;&lt;/span&gt;" style="ellipse;whiteSpace=wrap;html=1;aspect=fixed;fillColor=#e51400;fontColor=#ffffff;strokeColor=#B20000;" parent="WIyWlLk6GJQsqaUBKTNV-1" vertex="1">
          <mxGeometry x="549.34" y="935" width="50" height="50" as="geometry" />
        </mxCell>
        <mxCell id="-MrWlAkrLKYYtXTXgUd7-306" style="edgeStyle=none;curved=1;rounded=0;orthogonalLoop=1;jettySize=auto;html=1;exitX=1;exitY=0.5;exitDx=0;exitDy=0;entryX=0;entryY=0.5;entryDx=0;entryDy=0;fontSize=12;startSize=8;endSize=8;" parent="WIyWlLk6GJQsqaUBKTNV-1" source="-MrWlAkrLKYYtXTXgUd7-304" target="-MrWlAkrLKYYtXTXgUd7-305" edge="1">
          <mxGeometry relative="1" as="geometry" />
        </mxCell>
        <mxCell id="-MrWlAkrLKYYtXTXgUd7-304" value="&lt;div&gt;&lt;span style=&quot;background-color: initial;&quot;&gt;printMatrix(t3, n, n);&lt;/span&gt;&lt;br&gt;&lt;/div&gt;" style="shape=process;whiteSpace=wrap;html=1;backgroundOutline=1;fontSize=16;fillColor=#d5e8d4;strokeColor=#82b366;" parent="WIyWlLk6GJQsqaUBKTNV-1" vertex="1">
          <mxGeometry x="506.63999999999993" y="1930" width="228.03" height="60" as="geometry" />
        </mxCell>
        <mxCell id="-MrWlAkrLKYYtXTXgUd7-305" value="&lt;span style=&quot;font-size: 30px;&quot;&gt;O&lt;br&gt;&lt;/span&gt;" style="ellipse;whiteSpace=wrap;html=1;aspect=fixed;fillColor=#e51400;fontColor=#ffffff;strokeColor=#B20000;" parent="WIyWlLk6GJQsqaUBKTNV-1" vertex="1">
          <mxGeometry x="770" y="1935" width="50" height="50" as="geometry" />
        </mxCell>
        <mxCell id="-MrWlAkrLKYYtXTXgUd7-355" style="edgeStyle=none;curved=1;rounded=0;orthogonalLoop=1;jettySize=auto;html=1;exitX=0.5;exitY=1;exitDx=0;exitDy=0;entryX=0.5;entryY=0;entryDx=0;entryDy=0;fontSize=12;startSize=8;endSize=8;" parent="WIyWlLk6GJQsqaUBKTNV-1" source="-MrWlAkrLKYYtXTXgUd7-313" target="-MrWlAkrLKYYtXTXgUd7-349" edge="1">
          <mxGeometry relative="1" as="geometry" />
        </mxCell>
        <mxCell id="-MrWlAkrLKYYtXTXgUd7-313" value="&lt;font style=&quot;font-size: 30px;&quot;&gt;OS&lt;br&gt;&lt;/font&gt;" style="ellipse;whiteSpace=wrap;html=1;aspect=fixed;fillColor=#e51400;fontColor=#ffffff;strokeColor=#B20000;" parent="WIyWlLk6GJQsqaUBKTNV-1" vertex="1">
          <mxGeometry x="374.25" y="4120" width="50" height="50" as="geometry" />
        </mxCell>
        <mxCell id="-MrWlAkrLKYYtXTXgUd7-314" value="i = 0; i &amp;lt; n + 1; i++" style="shape=hexagon;perimeter=hexagonPerimeter2;whiteSpace=wrap;html=1;fixedSize=1;fillColor=#e1d5e7;strokeColor=#9673a6;" parent="WIyWlLk6GJQsqaUBKTNV-1" vertex="1">
          <mxGeometry x="296.68000000000006" y="4280" width="205" height="30" as="geometry" />
        </mxCell>
        <mxCell id="-MrWlAkrLKYYtXTXgUd7-315" style="edgeStyle=none;curved=1;rounded=0;orthogonalLoop=1;jettySize=auto;html=1;exitX=0.5;exitY=1;exitDx=0;exitDy=0;fontSize=12;startSize=8;endSize=8;" parent="WIyWlLk6GJQsqaUBKTNV-1" source="-MrWlAkrLKYYtXTXgUd7-316" target="-MrWlAkrLKYYtXTXgUd7-322" edge="1">
          <mxGeometry relative="1" as="geometry" />
        </mxCell>
        <mxCell id="-MrWlAkrLKYYtXTXgUd7-316" value="j = 0; j &amp;lt; n; j++" style="shape=hexagon;perimeter=hexagonPerimeter2;whiteSpace=wrap;html=1;fixedSize=1;fillColor=#e1d5e7;strokeColor=#9673a6;" parent="WIyWlLk6GJQsqaUBKTNV-1" vertex="1">
          <mxGeometry x="296.68000000000006" y="4330" width="205" height="30" as="geometry" />
        </mxCell>
        <mxCell id="-MrWlAkrLKYYtXTXgUd7-317" style="edgeStyle=none;curved=1;rounded=0;orthogonalLoop=1;jettySize=auto;html=1;exitX=0.5;exitY=1;exitDx=0;exitDy=0;fontSize=12;startSize=8;endSize=8;" parent="WIyWlLk6GJQsqaUBKTNV-1" edge="1">
          <mxGeometry relative="1" as="geometry">
            <mxPoint x="535.3700000000001" y="4850" as="sourcePoint" />
            <mxPoint x="535.3700000000001" y="4850" as="targetPoint" />
          </mxGeometry>
        </mxCell>
        <mxCell id="-MrWlAkrLKYYtXTXgUd7-318" style="edgeStyle=orthogonalEdgeStyle;rounded=0;orthogonalLoop=1;jettySize=auto;html=1;entryX=0;entryY=0.5;entryDx=0;entryDy=0;exitX=0.5;exitY=1;exitDx=0;exitDy=0;" parent="WIyWlLk6GJQsqaUBKTNV-1" source="-MrWlAkrLKYYtXTXgUd7-322" target="-MrWlAkrLKYYtXTXgUd7-316" edge="1">
          <mxGeometry relative="1" as="geometry">
            <Array as="points">
              <mxPoint x="399.61" y="4440" />
              <mxPoint x="69.61" y="4440" />
              <mxPoint x="69.61" y="4345" />
            </Array>
            <mxPoint x="424.9233333333333" y="4579" as="sourcePoint" />
            <mxPoint x="245.11" y="4419" as="targetPoint" />
          </mxGeometry>
        </mxCell>
        <mxCell id="-MrWlAkrLKYYtXTXgUd7-319" style="edgeStyle=orthogonalEdgeStyle;rounded=0;orthogonalLoop=1;jettySize=auto;html=1;exitX=1;exitY=0.5;exitDx=0;exitDy=0;entryX=0.5;entryY=0;entryDx=0;entryDy=0;" parent="WIyWlLk6GJQsqaUBKTNV-1" source="-MrWlAkrLKYYtXTXgUd7-316" target="-MrWlAkrLKYYtXTXgUd7-323" edge="1">
          <mxGeometry relative="1" as="geometry">
            <mxPoint x="604.3000000000001" y="4410" as="sourcePoint" />
            <mxPoint x="424.8700000000001" y="4630" as="targetPoint" />
            <Array as="points">
              <mxPoint x="749.61" y="4345" />
              <mxPoint x="749.61" y="4450" />
              <mxPoint x="399.61" y="4450" />
            </Array>
          </mxGeometry>
        </mxCell>
        <mxCell id="-MrWlAkrLKYYtXTXgUd7-320" style="edgeStyle=orthogonalEdgeStyle;rounded=0;orthogonalLoop=1;jettySize=auto;html=1;exitX=0.5;exitY=1;exitDx=0;exitDy=0;entryX=0;entryY=0.5;entryDx=0;entryDy=0;" parent="WIyWlLk6GJQsqaUBKTNV-1" source="-MrWlAkrLKYYtXTXgUd7-323" target="-MrWlAkrLKYYtXTXgUd7-314" edge="1">
          <mxGeometry relative="1" as="geometry">
            <Array as="points">
              <mxPoint x="399.61" y="4520" />
              <mxPoint x="29.610000000000003" y="4520" />
              <mxPoint x="29.610000000000003" y="4295" />
            </Array>
            <mxPoint x="424.8700000000001" y="4660" as="sourcePoint" />
            <mxPoint x="321.12000000000006" y="4310" as="targetPoint" />
          </mxGeometry>
        </mxCell>
        <mxCell id="-MrWlAkrLKYYtXTXgUd7-321" style="edgeStyle=orthogonalEdgeStyle;rounded=0;orthogonalLoop=1;jettySize=auto;html=1;exitX=1;exitY=0.5;exitDx=0;exitDy=0;" parent="WIyWlLk6GJQsqaUBKTNV-1" source="-MrWlAkrLKYYtXTXgUd7-314" edge="1">
          <mxGeometry relative="1" as="geometry">
            <mxPoint x="510.96999999999997" y="4170" as="sourcePoint" />
            <mxPoint x="399.1800000000002" y="4551.5" as="targetPoint" />
            <Array as="points">
              <mxPoint x="789.61" y="4295" />
              <mxPoint x="789.61" y="4530" />
              <mxPoint x="399.61" y="4530" />
            </Array>
          </mxGeometry>
        </mxCell>
        <mxCell id="-MrWlAkrLKYYtXTXgUd7-322" value="printf(&quot;(%06.2lf %s) &quot;, data_matrix[i][j].time, data_matrix[i][j].event);" style="shape=parallelogram;perimeter=parallelogramPerimeter;whiteSpace=wrap;html=1;fixedSize=1;fontSize=16;fillColor=#bac8d3;strokeColor=#23445d;" parent="WIyWlLk6GJQsqaUBKTNV-1" vertex="1">
          <mxGeometry x="119.11000000000001" y="4390" width="560" height="30" as="geometry" />
        </mxCell>
        <mxCell id="-MrWlAkrLKYYtXTXgUd7-323" value="printf(&quot;\n&quot;);" style="shape=parallelogram;perimeter=parallelogramPerimeter;whiteSpace=wrap;html=1;fixedSize=1;fontSize=16;fillColor=#bac8d3;strokeColor=#23445d;" parent="WIyWlLk6GJQsqaUBKTNV-1" vertex="1">
          <mxGeometry x="323.16" y="4470" width="152.04" height="30" as="geometry" />
        </mxCell>
        <mxCell id="-MrWlAkrLKYYtXTXgUd7-327" style="edgeStyle=none;curved=1;rounded=0;orthogonalLoop=1;jettySize=auto;html=1;exitX=1;exitY=0.5;exitDx=0;exitDy=0;entryX=0;entryY=0.5;entryDx=0;entryDy=0;fontSize=12;startSize=8;endSize=8;" parent="WIyWlLk6GJQsqaUBKTNV-1" source="-MrWlAkrLKYYtXTXgUd7-328" target="-MrWlAkrLKYYtXTXgUd7-329" edge="1">
          <mxGeometry relative="1" as="geometry" />
        </mxCell>
        <mxCell id="G4KadfX6KPJVV7M6jvxg-125" value="" style="edgeStyle=orthogonalEdgeStyle;rounded=0;orthogonalLoop=1;jettySize=auto;html=1;" edge="1" parent="WIyWlLk6GJQsqaUBKTNV-1" source="-MrWlAkrLKYYtXTXgUd7-328" target="G4KadfX6KPJVV7M6jvxg-124">
          <mxGeometry relative="1" as="geometry" />
        </mxCell>
        <mxCell id="-MrWlAkrLKYYtXTXgUd7-328" value="&lt;div&gt;&lt;font style=&quot;font-size: 12px;&quot;&gt;printMatrix(matr, n+1);&lt;/font&gt;&lt;br&gt;&lt;/div&gt;" style="shape=process;whiteSpace=wrap;html=1;backgroundOutline=1;fontSize=16;fillColor=#d5e8d4;strokeColor=#82b366;" parent="WIyWlLk6GJQsqaUBKTNV-1" vertex="1">
          <mxGeometry x="487.33" y="2465" width="210" height="30" as="geometry" />
        </mxCell>
        <mxCell id="-MrWlAkrLKYYtXTXgUd7-329" value="&lt;span style=&quot;font-size: 30px;&quot;&gt;OS&lt;br&gt;&lt;/span&gt;" style="ellipse;whiteSpace=wrap;html=1;aspect=fixed;fillColor=#e51400;fontColor=#ffffff;strokeColor=#B20000;" parent="WIyWlLk6GJQsqaUBKTNV-1" vertex="1">
          <mxGeometry x="744.33" y="2455" width="50" height="50" as="geometry" />
        </mxCell>
        <mxCell id="-MrWlAkrLKYYtXTXgUd7-340" value="Конец" style="rounded=1;whiteSpace=wrap;html=1;fontSize=16;glass=0;shadow=0;portConstraintRotation=0;fillColor=#fad9d5;strokeColor=#ae4132;" parent="WIyWlLk6GJQsqaUBKTNV-1" vertex="1">
          <mxGeometry x="339.11" y="4551.5" width="120" height="40" as="geometry" />
        </mxCell>
        <mxCell id="-MrWlAkrLKYYtXTXgUd7-341" value="Конец" style="rounded=1;whiteSpace=wrap;html=1;fontSize=16;glass=0;shadow=0;portConstraintRotation=0;fillColor=#fad9d5;strokeColor=#ae4132;" parent="WIyWlLk6GJQsqaUBKTNV-1" vertex="1">
          <mxGeometry x="341.9" y="4012" width="120" height="40" as="geometry" />
        </mxCell>
        <mxCell id="-MrWlAkrLKYYtXTXgUd7-342" value="Начало" style="rounded=1;whiteSpace=wrap;html=1;fontSize=16;glass=0;shadow=0;portConstraintRotation=0;fillColor=#fad9d5;strokeColor=#ae4132;" parent="WIyWlLk6GJQsqaUBKTNV-1" vertex="1">
          <mxGeometry x="341.9" y="3670" width="120" height="40" as="geometry" />
        </mxCell>
        <mxCell id="-MrWlAkrLKYYtXTXgUd7-344" value="" style="endArrow=none;dashed=1;html=1;dashPattern=1 3;strokeWidth=2;rounded=0;fontSize=12;startSize=8;endSize=8;curved=1;entryX=0.049;entryY=0.495;entryDx=0;entryDy=0;entryPerimeter=0;exitX=0.992;exitY=0.506;exitDx=0;exitDy=0;exitPerimeter=0;" parent="WIyWlLk6GJQsqaUBKTNV-1" source="-MrWlAkrLKYYtXTXgUd7-342" target="-MrWlAkrLKYYtXTXgUd7-345" edge="1">
          <mxGeometry width="50" height="50" relative="1" as="geometry">
            <mxPoint x="462.34" y="3689.81" as="sourcePoint" />
            <mxPoint x="532.8400000000001" y="3689.81" as="targetPoint" />
            <Array as="points">
              <mxPoint x="502.84000000000003" y="3689.81" />
            </Array>
          </mxGeometry>
        </mxCell>
        <mxCell id="-MrWlAkrLKYYtXTXgUd7-345" value="&amp;nbsp;// Функция вывода матрицы&lt;br&gt;printMatrix(matrix, rows, сols)" style="strokeWidth=2;html=1;shape=mxgraph.flowchart.annotation_2;align=left;labelPosition=right;pointerEvents=1;fontSize=16;" parent="WIyWlLk6GJQsqaUBKTNV-1" vertex="1">
          <mxGeometry x="499.0400000000001" y="3660" width="55.65" height="60" as="geometry" />
        </mxCell>
        <mxCell id="-MrWlAkrLKYYtXTXgUd7-354" style="edgeStyle=none;curved=1;rounded=0;orthogonalLoop=1;jettySize=auto;html=1;exitX=0.5;exitY=1;exitDx=0;exitDy=0;entryX=0.5;entryY=0;entryDx=0;entryDy=0;fontSize=12;startSize=8;endSize=8;" parent="WIyWlLk6GJQsqaUBKTNV-1" source="-MrWlAkrLKYYtXTXgUd7-349" target="-MrWlAkrLKYYtXTXgUd7-314" edge="1">
          <mxGeometry relative="1" as="geometry" />
        </mxCell>
        <mxCell id="-MrWlAkrLKYYtXTXgUd7-349" value="Начало" style="rounded=1;whiteSpace=wrap;html=1;fontSize=16;glass=0;shadow=0;portConstraintRotation=0;fillColor=#fad9d5;strokeColor=#ae4132;" parent="WIyWlLk6GJQsqaUBKTNV-1" vertex="1">
          <mxGeometry x="339.11" y="4200" width="120" height="40" as="geometry" />
        </mxCell>
        <mxCell id="-MrWlAkrLKYYtXTXgUd7-350" value="" style="endArrow=none;dashed=1;html=1;dashPattern=1 3;strokeWidth=2;rounded=0;fontSize=12;startSize=8;endSize=8;curved=1;entryX=0.049;entryY=0.495;entryDx=0;entryDy=0;entryPerimeter=0;exitX=1;exitY=0.5;exitDx=0;exitDy=0;" parent="WIyWlLk6GJQsqaUBKTNV-1" source="-MrWlAkrLKYYtXTXgUd7-349" target="-MrWlAkrLKYYtXTXgUd7-351" edge="1">
          <mxGeometry width="50" height="50" relative="1" as="geometry">
            <mxPoint x="460.11" y="4220" as="sourcePoint" />
            <mxPoint x="525.1200000000001" y="4219.8099999999995" as="targetPoint" />
            <Array as="points">
              <mxPoint x="495.12000000000006" y="4219.8099999999995" />
            </Array>
          </mxGeometry>
        </mxCell>
        <mxCell id="-MrWlAkrLKYYtXTXgUd7-351" value="&amp;nbsp;// Функция вывода матрицы структур&lt;br&gt;printMatrix(Data data_matrix, int n)" style="strokeWidth=2;html=1;shape=mxgraph.flowchart.annotation_2;align=left;labelPosition=right;pointerEvents=1;fontSize=16;" parent="WIyWlLk6GJQsqaUBKTNV-1" vertex="1">
          <mxGeometry x="491.32" y="4190" width="55.65" height="60" as="geometry" />
        </mxCell>
        <mxCell id="G4KadfX6KPJVV7M6jvxg-41" style="edgeStyle=orthogonalEdgeStyle;rounded=0;orthogonalLoop=1;jettySize=auto;html=1;exitX=0.5;exitY=1;exitDx=0;exitDy=0;" edge="1" parent="WIyWlLk6GJQsqaUBKTNV-1" source="G4KadfX6KPJVV7M6jvxg-1" target="G4KadfX6KPJVV7M6jvxg-3">
          <mxGeometry relative="1" as="geometry" />
        </mxCell>
        <mxCell id="G4KadfX6KPJVV7M6jvxg-1" value="Начало" style="rounded=1;whiteSpace=wrap;html=1;fontSize=12;glass=0;strokeWidth=1;shadow=0;fillColor=#fad9d5;strokeColor=#ae4132;" vertex="1" parent="WIyWlLk6GJQsqaUBKTNV-1">
          <mxGeometry x="238.75999999999996" y="4940" width="120" height="30" as="geometry" />
        </mxCell>
        <mxCell id="G4KadfX6KPJVV7M6jvxg-42" style="edgeStyle=orthogonalEdgeStyle;rounded=0;orthogonalLoop=1;jettySize=auto;html=1;exitX=0.5;exitY=1;exitDx=0;exitDy=0;entryX=0.5;entryY=0;entryDx=0;entryDy=0;" edge="1" parent="WIyWlLk6GJQsqaUBKTNV-1" source="G4KadfX6KPJVV7M6jvxg-3" target="G4KadfX6KPJVV7M6jvxg-15">
          <mxGeometry relative="1" as="geometry" />
        </mxCell>
        <mxCell id="G4KadfX6KPJVV7M6jvxg-3" value="&lt;font style=&quot;font-size: 10px;&quot;&gt;V = (V1 + V2) / 2;&lt;/font&gt;" style="rounded=0;whiteSpace=wrap;html=1;fillColor=#d5e8d4;strokeColor=#82b366;" vertex="1" parent="WIyWlLk6GJQsqaUBKTNV-1">
          <mxGeometry x="238.76000000000008" y="5000" width="120" height="30" as="geometry" />
        </mxCell>
        <mxCell id="G4KadfX6KPJVV7M6jvxg-4" value="" style="edgeStyle=orthogonalEdgeStyle;rounded=0;orthogonalLoop=1;jettySize=auto;html=1;" edge="1" parent="WIyWlLk6GJQsqaUBKTNV-1" source="G4KadfX6KPJVV7M6jvxg-5" target="G4KadfX6KPJVV7M6jvxg-6">
          <mxGeometry relative="1" as="geometry" />
        </mxCell>
        <mxCell id="G4KadfX6KPJVV7M6jvxg-5" value="&lt;font style=&quot;font-size: 10px;&quot;&gt;return (m * (V2 - V1)) / (P - Cx * (p * V * V / 2) * S);&lt;/font&gt;" style="rounded=0;whiteSpace=wrap;html=1;fillColor=#d5e8d4;strokeColor=#82b366;" vertex="1" parent="WIyWlLk6GJQsqaUBKTNV-1">
          <mxGeometry x="183.79999999999998" y="5450" width="229.91" height="30" as="geometry" />
        </mxCell>
        <mxCell id="G4KadfX6KPJVV7M6jvxg-6" value="Конец" style="rounded=1;whiteSpace=wrap;html=1;fontSize=12;glass=0;strokeWidth=1;shadow=0;fillColor=#dae8fc;strokeColor=#6c8ebf;" vertex="1" parent="WIyWlLk6GJQsqaUBKTNV-1">
          <mxGeometry x="238.75999999999996" y="5520" width="120" height="30" as="geometry" />
        </mxCell>
        <mxCell id="G4KadfX6KPJVV7M6jvxg-49" style="edgeStyle=orthogonalEdgeStyle;rounded=0;orthogonalLoop=1;jettySize=auto;html=1;exitX=0.5;exitY=1;exitDx=0;exitDy=0;entryX=0.5;entryY=0;entryDx=0;entryDy=0;" edge="1" parent="WIyWlLk6GJQsqaUBKTNV-1" source="G4KadfX6KPJVV7M6jvxg-8" target="G4KadfX6KPJVV7M6jvxg-44">
          <mxGeometry relative="1" as="geometry" />
        </mxCell>
        <mxCell id="G4KadfX6KPJVV7M6jvxg-8" value="&lt;font style=&quot;font-size: 10px;&quot;&gt;alpha = (m * g - Cy_b * (p * V * V / 2) * S) / (P / 57.3 + Cy_k * (p * V * V / 2) * S);&lt;/font&gt;" style="rounded=0;whiteSpace=wrap;html=1;fillColor=#d5e8d4;strokeColor=#82b366;" vertex="1" parent="WIyWlLk6GJQsqaUBKTNV-1">
          <mxGeometry x="121.09" y="5330" width="354.76" height="30" as="geometry" />
        </mxCell>
        <mxCell id="G4KadfX6KPJVV7M6jvxg-12" style="edgeStyle=orthogonalEdgeStyle;rounded=0;orthogonalLoop=1;jettySize=auto;html=1;exitX=0.5;exitY=1;exitDx=0;exitDy=0;entryX=0.5;entryY=0;entryDx=0;entryDy=0;" edge="1" parent="WIyWlLk6GJQsqaUBKTNV-1" source="G4KadfX6KPJVV7M6jvxg-11" target="G4KadfX6KPJVV7M6jvxg-1">
          <mxGeometry relative="1" as="geometry" />
        </mxCell>
        <mxCell id="G4KadfX6KPJVV7M6jvxg-11" value="&lt;font style=&quot;font-size: 23px;&quot;&gt;&amp;gt;&lt;/font&gt;" style="ellipse;whiteSpace=wrap;html=1;aspect=fixed;fillColor=#e51400;strokeColor=#B20000;fontColor=#ffffff;" vertex="1" parent="WIyWlLk6GJQsqaUBKTNV-1">
          <mxGeometry x="278.76" y="4860" width="40" height="40" as="geometry" />
        </mxCell>
        <mxCell id="G4KadfX6KPJVV7M6jvxg-14" value="&lt;p style=&quot;line-height: 80%; font-size: 13px;&quot;&gt;&lt;font style=&quot;font-size: 13px;&quot;&gt;//&amp;nbsp;Разгон&lt;br&gt;&lt;/font&gt;&lt;/p&gt;&lt;p style=&quot;font-size: 13px; line-height: 80%;&quot;&gt;&lt;font style=&quot;font-size: 13px;&quot;&gt;acceleration_time(V1, V2, H)&lt;/font&gt;&lt;/p&gt;&lt;p&gt;&lt;/p&gt;" style="strokeWidth=2;html=1;shape=mxgraph.flowchart.annotation_2;align=left;labelPosition=right;pointerEvents=1;fontSize=16;" vertex="1" parent="WIyWlLk6GJQsqaUBKTNV-1">
          <mxGeometry x="394.0700000000001" y="4935" width="55.65" height="40" as="geometry" />
        </mxCell>
        <mxCell id="G4KadfX6KPJVV7M6jvxg-39" style="edgeStyle=orthogonalEdgeStyle;rounded=0;orthogonalLoop=1;jettySize=auto;html=1;exitX=0.5;exitY=1;exitDx=0;exitDy=0;entryX=0.5;entryY=0;entryDx=0;entryDy=0;" edge="1" parent="WIyWlLk6GJQsqaUBKTNV-1" source="G4KadfX6KPJVV7M6jvxg-15" target="G4KadfX6KPJVV7M6jvxg-30">
          <mxGeometry relative="1" as="geometry" />
        </mxCell>
        <mxCell id="G4KadfX6KPJVV7M6jvxg-15" value="&lt;font style=&quot;font-size: 10px;&quot;&gt;&lt;font style=&quot;font-size: 10px;&quot;&gt;g = acceleration_free_fall(H)&lt;/font&gt;;&lt;/font&gt;" style="rounded=1;whiteSpace=wrap;html=1;absoluteArcSize=1;arcSize=14;strokeWidth=1;fillColor=#fad9d5;strokeColor=#ae4132;" vertex="1" parent="WIyWlLk6GJQsqaUBKTNV-1">
          <mxGeometry x="228.96" y="5080" width="137.98" height="20" as="geometry" />
        </mxCell>
        <mxCell id="G4KadfX6KPJVV7M6jvxg-18" value="" style="endArrow=none;dashed=1;html=1;dashPattern=1 3;strokeWidth=2;rounded=0;fontSize=12;startSize=8;endSize=8;curved=1;entryX=0.049;entryY=0.495;entryDx=0;entryDy=0;entryPerimeter=0;exitX=1;exitY=0.5;exitDx=0;exitDy=0;" edge="1" parent="WIyWlLk6GJQsqaUBKTNV-1" target="G4KadfX6KPJVV7M6jvxg-19" source="G4KadfX6KPJVV7M6jvxg-15">
          <mxGeometry width="50" height="50" relative="1" as="geometry">
            <mxPoint x="349.3" y="5090" as="sourcePoint" />
            <mxPoint x="414.8400000000001" y="5089.8099999999995" as="targetPoint" />
            <Array as="points">
              <mxPoint x="384.8400000000001" y="5089.8099999999995" />
            </Array>
          </mxGeometry>
        </mxCell>
        <mxCell id="G4KadfX6KPJVV7M6jvxg-19" value="&lt;p style=&quot;line-height: 50%; font-size: 10px;&quot;&gt;&lt;font style=&quot;font-size: 10px;&quot;&gt;double acceleration_free_fall(double h) {&lt;/font&gt;&lt;/p&gt;&lt;p style=&quot;line-height: 50%; font-size: 10px;&quot;&gt;&lt;span style=&quot;background-color: initial;&quot;&gt;&lt;font style=&quot;font-size: 10px;&quot;&gt;&lt;span style=&quot;white-space: pre;&quot;&gt;&#x9;&lt;/span&gt;return 5.51e-15 * h * h * h + -4.98e-11 * h * h + -2.97e-06 * h + 9.81;&lt;/font&gt;&lt;/span&gt;&lt;/p&gt;&lt;p style=&quot;line-height: 50%; font-size: 10px;&quot;&gt;&lt;span style=&quot;background-color: initial;&quot;&gt;&lt;font style=&quot;font-size: 10px;&quot;&gt;}&lt;/font&gt;&lt;/span&gt;&lt;/p&gt;" style="strokeWidth=1;html=1;shape=mxgraph.flowchart.annotation_2;align=left;labelPosition=right;pointerEvents=1;fontSize=16;" vertex="1" parent="WIyWlLk6GJQsqaUBKTNV-1">
          <mxGeometry x="394.07" y="5070" width="55.65" height="40" as="geometry" />
        </mxCell>
        <mxCell id="G4KadfX6KPJVV7M6jvxg-40" style="edgeStyle=orthogonalEdgeStyle;rounded=0;orthogonalLoop=1;jettySize=auto;html=1;exitX=0.5;exitY=1;exitDx=0;exitDy=0;" edge="1" parent="WIyWlLk6GJQsqaUBKTNV-1" source="G4KadfX6KPJVV7M6jvxg-30" target="G4KadfX6KPJVV7M6jvxg-34">
          <mxGeometry relative="1" as="geometry" />
        </mxCell>
        <mxCell id="G4KadfX6KPJVV7M6jvxg-30" value="&lt;font style=&quot;font-size: 10px;&quot;&gt;p = air_density(H);&lt;/font&gt;" style="rounded=1;whiteSpace=wrap;html=1;absoluteArcSize=1;arcSize=14;strokeWidth=1;fillColor=#fad9d5;strokeColor=#ae4132;" vertex="1" parent="WIyWlLk6GJQsqaUBKTNV-1">
          <mxGeometry x="229.48" y="5140" width="137.98" height="20" as="geometry" />
        </mxCell>
        <mxCell id="G4KadfX6KPJVV7M6jvxg-31" value="" style="endArrow=none;dashed=1;html=1;dashPattern=1 3;strokeWidth=2;rounded=0;fontSize=12;startSize=8;endSize=8;curved=1;entryX=0.049;entryY=0.495;entryDx=0;entryDy=0;entryPerimeter=0;exitX=1;exitY=0.5;exitDx=0;exitDy=0;" edge="1" parent="WIyWlLk6GJQsqaUBKTNV-1" source="G4KadfX6KPJVV7M6jvxg-30" target="G4KadfX6KPJVV7M6jvxg-32">
          <mxGeometry width="50" height="50" relative="1" as="geometry">
            <mxPoint x="350.0900000000001" y="5150" as="sourcePoint" />
            <mxPoint x="415.63000000000017" y="5149.8099999999995" as="targetPoint" />
            <Array as="points">
              <mxPoint x="385.63000000000017" y="5149.8099999999995" />
            </Array>
          </mxGeometry>
        </mxCell>
        <mxCell id="G4KadfX6KPJVV7M6jvxg-32" value="&lt;p style=&quot;line-height: 50%; font-size: 10px;&quot;&gt;&lt;font style=&quot;font-size: 10px;&quot;&gt;double air_density(double h) {&lt;/font&gt;&lt;/p&gt;&lt;p style=&quot;line-height: 50%; font-size: 10px;&quot;&gt;&lt;font style=&quot;font-size: 10px;&quot;&gt;&amp;nbsp; &amp;nbsp; return -6.82e-14 * h * h * h + 4.31e-09 * h * h + -1.18e-04 * h + 1.22;&lt;/font&gt;&lt;/p&gt;&lt;p style=&quot;line-height: 50%; font-size: 10px;&quot;&gt;&lt;font style=&quot;font-size: 10px;&quot;&gt;}&lt;/font&gt;&lt;/p&gt;" style="strokeWidth=1;html=1;shape=mxgraph.flowchart.annotation_2;align=left;labelPosition=right;pointerEvents=1;fontSize=16;" vertex="1" parent="WIyWlLk6GJQsqaUBKTNV-1">
          <mxGeometry x="394.78000000000003" y="5130" width="55.65" height="40" as="geometry" />
        </mxCell>
        <mxCell id="G4KadfX6KPJVV7M6jvxg-48" style="edgeStyle=orthogonalEdgeStyle;rounded=0;orthogonalLoop=1;jettySize=auto;html=1;exitX=0.5;exitY=1;exitDx=0;exitDy=0;entryX=0.5;entryY=0;entryDx=0;entryDy=0;" edge="1" parent="WIyWlLk6GJQsqaUBKTNV-1" source="G4KadfX6KPJVV7M6jvxg-34" target="G4KadfX6KPJVV7M6jvxg-8">
          <mxGeometry relative="1" as="geometry" />
        </mxCell>
        <mxCell id="G4KadfX6KPJVV7M6jvxg-34" value="&lt;font style=&quot;font-size: 10px;&quot;&gt;P = thrust(H, V)&lt;/font&gt;" style="rounded=1;whiteSpace=wrap;html=1;absoluteArcSize=1;arcSize=14;strokeWidth=1;fillColor=#fad9d5;strokeColor=#ae4132;" vertex="1" parent="WIyWlLk6GJQsqaUBKTNV-1">
          <mxGeometry x="229.48" y="5240" width="137.98" height="20" as="geometry" />
        </mxCell>
        <mxCell id="G4KadfX6KPJVV7M6jvxg-35" value="" style="endArrow=none;dashed=1;html=1;dashPattern=1 3;strokeWidth=2;rounded=0;fontSize=12;startSize=8;endSize=8;curved=1;entryX=0.049;entryY=0.495;entryDx=0;entryDy=0;entryPerimeter=0;exitX=1;exitY=0.5;exitDx=0;exitDy=0;" edge="1" parent="WIyWlLk6GJQsqaUBKTNV-1" source="G4KadfX6KPJVV7M6jvxg-34" target="G4KadfX6KPJVV7M6jvxg-36">
          <mxGeometry width="50" height="50" relative="1" as="geometry">
            <mxPoint x="343.14000000000004" y="5250" as="sourcePoint" />
            <mxPoint x="408.6800000000001" y="5249.8099999999995" as="targetPoint" />
            <Array as="points">
              <mxPoint x="378.6800000000001" y="5249.8099999999995" />
            </Array>
          </mxGeometry>
        </mxCell>
        <mxCell id="G4KadfX6KPJVV7M6jvxg-36" value="&lt;p style=&quot;line-height: 50%; font-size: 10px;&quot;&gt;&lt;font style=&quot;font-size: 10px;&quot;&gt;double thrust(double h, double V) {&lt;/font&gt;&lt;/p&gt;&lt;p style=&quot;line-height: 50%; font-size: 10px;&quot;&gt;&lt;font style=&quot;font-size: 10px;&quot;&gt;&amp;nbsp; &amp;nbsp; double H = h / 1000;&lt;/font&gt;&lt;/p&gt;&lt;p style=&quot;line-height: 50%; font-size: 10px;&quot;&gt;&lt;font style=&quot;font-size: 10px;&quot;&gt;&amp;nbsp; &amp;nbsp; double M = V / speed_sound(h);&lt;/font&gt;&lt;/p&gt;&lt;p style=&quot;line-height: 50%; font-size: 10px;&quot;&gt;&lt;font style=&quot;font-size: 10px;&quot;&gt;&amp;nbsp; &amp;nbsp; double a = 7.0621e+00 * H * H + 4.9873e+02 * H - 5.1660e+03;&lt;/font&gt;&lt;/p&gt;&lt;p style=&quot;line-height: 50%; font-size: 10px;&quot;&gt;&lt;font style=&quot;font-size: 10px;&quot;&gt;&amp;nbsp; &amp;nbsp; double b = -37.960 * H * H - 314.975 * H + 9321.662;&lt;/font&gt;&lt;/p&gt;&lt;p style=&quot;line-height: 50%; font-size: 10px;&quot;&gt;&lt;font style=&quot;font-size: 10px;&quot;&gt;&amp;nbsp; &amp;nbsp; double P = a * M + b;&lt;/font&gt;&lt;/p&gt;&lt;p style=&quot;line-height: 50%; font-size: 10px;&quot;&gt;&lt;font style=&quot;font-size: 10px;&quot;&gt;&amp;nbsp; &amp;nbsp; return 9.8 * P; // Переводим в СИ&lt;/font&gt;&lt;/p&gt;&lt;p style=&quot;line-height: 50%; font-size: 10px;&quot;&gt;&lt;font style=&quot;font-size: 10px;&quot;&gt;}&lt;/font&gt;&lt;/p&gt;" style="strokeWidth=1;html=1;shape=mxgraph.flowchart.annotation_2;align=left;labelPosition=right;pointerEvents=1;fontSize=16;" vertex="1" parent="WIyWlLk6GJQsqaUBKTNV-1">
          <mxGeometry x="395.69" y="5190" width="55.65" height="120" as="geometry" />
        </mxCell>
        <mxCell id="G4KadfX6KPJVV7M6jvxg-51" style="edgeStyle=orthogonalEdgeStyle;rounded=0;orthogonalLoop=1;jettySize=auto;html=1;exitX=0.5;exitY=1;exitDx=0;exitDy=0;entryX=0.5;entryY=0;entryDx=0;entryDy=0;" edge="1" parent="WIyWlLk6GJQsqaUBKTNV-1" source="G4KadfX6KPJVV7M6jvxg-44" target="G4KadfX6KPJVV7M6jvxg-5">
          <mxGeometry relative="1" as="geometry" />
        </mxCell>
        <mxCell id="G4KadfX6KPJVV7M6jvxg-44" value="&lt;font style=&quot;font-size: 10px;&quot;&gt;frontal_resistance(alpha, &amp;amp;Cx, &amp;amp;Cy);&lt;/font&gt;" style="rounded=1;whiteSpace=wrap;html=1;absoluteArcSize=1;arcSize=14;strokeWidth=1;fillColor=#fad9d5;strokeColor=#ae4132;" vertex="1" parent="WIyWlLk6GJQsqaUBKTNV-1">
          <mxGeometry x="215.17999999999998" y="5390.5" width="165.53" height="20" as="geometry" />
        </mxCell>
        <mxCell id="G4KadfX6KPJVV7M6jvxg-46" value="&lt;p style=&quot;line-height: 50%; font-size: 10px;&quot;&gt;&lt;font style=&quot;font-size: 10px;&quot;&gt;void frontal_resistance(double alpha, double *Cx, double *Cy) {&lt;/font&gt;&lt;/p&gt;&lt;p style=&quot;line-height: 50%; font-size: 10px;&quot;&gt;&lt;font style=&quot;font-size: 10px;&quot;&gt;&amp;nbsp; &amp;nbsp; *Cy = Cy_k * alpha - Cy_b;&lt;/font&gt;&lt;/p&gt;&lt;p style=&quot;line-height: 50%; font-size: 10px;&quot;&gt;&lt;font style=&quot;font-size: 10px;&quot;&gt;&amp;nbsp; &amp;nbsp; *Cx = 4.1910e-02 * (*Cy) + 9.9850e-03;&lt;/font&gt;&lt;/p&gt;&lt;p style=&quot;line-height: 50%; font-size: 10px;&quot;&gt;&lt;font style=&quot;font-size: 10px;&quot;&gt;}&lt;/font&gt;&lt;/p&gt;" style="strokeWidth=1;html=1;shape=mxgraph.flowchart.annotation_2;align=left;labelPosition=right;pointerEvents=1;fontSize=16;" vertex="1" parent="WIyWlLk6GJQsqaUBKTNV-1">
          <mxGeometry x="396.79" y="5370" width="55.65" height="61" as="geometry" />
        </mxCell>
        <mxCell id="G4KadfX6KPJVV7M6jvxg-50" value="" style="endArrow=none;dashed=1;html=1;dashPattern=1 3;strokeWidth=2;rounded=0;entryX=1;entryY=0.5;entryDx=0;entryDy=0;exitX=0;exitY=0.5;exitDx=0;exitDy=0;exitPerimeter=0;" edge="1" parent="WIyWlLk6GJQsqaUBKTNV-1" source="G4KadfX6KPJVV7M6jvxg-46" target="G4KadfX6KPJVV7M6jvxg-44">
          <mxGeometry width="50" height="50" relative="1" as="geometry">
            <mxPoint x="400.11000000000007" y="5400" as="sourcePoint" />
            <mxPoint x="379.76000000000005" y="5400.29" as="targetPoint" />
            <Array as="points" />
          </mxGeometry>
        </mxCell>
        <mxCell id="G4KadfX6KPJVV7M6jvxg-53" value="" style="endArrow=none;dashed=1;html=1;dashPattern=1 3;strokeWidth=2;rounded=0;exitX=1;exitY=0.5;exitDx=0;exitDy=0;entryX=0.014;entryY=0.51;entryDx=0;entryDy=0;entryPerimeter=0;" edge="1" parent="WIyWlLk6GJQsqaUBKTNV-1" source="G4KadfX6KPJVV7M6jvxg-1" target="G4KadfX6KPJVV7M6jvxg-14">
          <mxGeometry width="50" height="50" relative="1" as="geometry">
            <mxPoint x="359.51000000000005" y="4954.75" as="sourcePoint" />
            <mxPoint x="399.51000000000005" y="4954.75" as="targetPoint" />
          </mxGeometry>
        </mxCell>
        <mxCell id="G4KadfX6KPJVV7M6jvxg-55" style="edgeStyle=orthogonalEdgeStyle;rounded=0;orthogonalLoop=1;jettySize=auto;html=1;exitX=0.5;exitY=1;exitDx=0;exitDy=0;entryX=0.75;entryY=1;entryDx=0;entryDy=0;" edge="1" parent="WIyWlLk6GJQsqaUBKTNV-1" source="-MrWlAkrLKYYtXTXgUd7-342" target="-MrWlAkrLKYYtXTXgUd7-342">
          <mxGeometry relative="1" as="geometry" />
        </mxCell>
        <mxCell id="G4KadfX6KPJVV7M6jvxg-56" style="edgeStyle=none;curved=1;rounded=0;orthogonalLoop=1;jettySize=auto;html=1;exitX=0.5;exitY=1;exitDx=0;exitDy=0;fontSize=12;startSize=8;endSize=8;" edge="1" parent="WIyWlLk6GJQsqaUBKTNV-1">
          <mxGeometry relative="1" as="geometry">
            <mxPoint x="537.9700000000001" y="6090" as="sourcePoint" />
            <mxPoint x="537.9700000000001" y="6090" as="targetPoint" />
          </mxGeometry>
        </mxCell>
        <mxCell id="G4KadfX6KPJVV7M6jvxg-57" style="edgeStyle=orthogonalEdgeStyle;rounded=0;orthogonalLoop=1;jettySize=auto;html=1;exitX=0.5;exitY=1;exitDx=0;exitDy=0;" edge="1" parent="WIyWlLk6GJQsqaUBKTNV-1" source="G4KadfX6KPJVV7M6jvxg-58" target="G4KadfX6KPJVV7M6jvxg-60">
          <mxGeometry relative="1" as="geometry" />
        </mxCell>
        <mxCell id="G4KadfX6KPJVV7M6jvxg-58" value="Начало" style="rounded=1;whiteSpace=wrap;html=1;fontSize=12;glass=0;strokeWidth=1;shadow=0;fillColor=#fad9d5;strokeColor=#ae4132;" vertex="1" parent="WIyWlLk6GJQsqaUBKTNV-1">
          <mxGeometry x="241.35999999999999" y="6180" width="120" height="30" as="geometry" />
        </mxCell>
        <mxCell id="G4KadfX6KPJVV7M6jvxg-59" style="edgeStyle=orthogonalEdgeStyle;rounded=0;orthogonalLoop=1;jettySize=auto;html=1;exitX=0.5;exitY=1;exitDx=0;exitDy=0;entryX=0.5;entryY=0;entryDx=0;entryDy=0;" edge="1" parent="WIyWlLk6GJQsqaUBKTNV-1" source="G4KadfX6KPJVV7M6jvxg-60" target="G4KadfX6KPJVV7M6jvxg-70">
          <mxGeometry relative="1" as="geometry" />
        </mxCell>
        <mxCell id="G4KadfX6KPJVV7M6jvxg-60" value="&lt;font style=&quot;font-size: 10px;&quot;&gt;H = (H1 + H2) / 2;&lt;/font&gt;" style="rounded=0;whiteSpace=wrap;html=1;fillColor=#d5e8d4;strokeColor=#82b366;" vertex="1" parent="WIyWlLk6GJQsqaUBKTNV-1">
          <mxGeometry x="241.3600000000001" y="6240" width="120" height="30" as="geometry" />
        </mxCell>
        <mxCell id="G4KadfX6KPJVV7M6jvxg-61" value="" style="edgeStyle=orthogonalEdgeStyle;rounded=0;orthogonalLoop=1;jettySize=auto;html=1;" edge="1" parent="WIyWlLk6GJQsqaUBKTNV-1" source="G4KadfX6KPJVV7M6jvxg-62" target="G4KadfX6KPJVV7M6jvxg-63">
          <mxGeometry relative="1" as="geometry" />
        </mxCell>
        <mxCell id="G4KadfX6KPJVV7M6jvxg-62" value="&lt;font style=&quot;font-size: 10px;&quot;&gt;teta = ((P - Cx * (p * V * V / 2) * S ) * 57.3) / (m * g);&lt;br&gt;return (57.3 * (H2 - H1)) / (V * teta);&lt;/font&gt;" style="rounded=0;whiteSpace=wrap;html=1;fillColor=#d5e8d4;strokeColor=#82b366;" vertex="1" parent="WIyWlLk6GJQsqaUBKTNV-1">
          <mxGeometry x="186.39999999999995" y="6690" width="229.91" height="30" as="geometry" />
        </mxCell>
        <mxCell id="G4KadfX6KPJVV7M6jvxg-63" value="Конец" style="rounded=1;whiteSpace=wrap;html=1;fontSize=12;glass=0;strokeWidth=1;shadow=0;fillColor=#dae8fc;strokeColor=#6c8ebf;" vertex="1" parent="WIyWlLk6GJQsqaUBKTNV-1">
          <mxGeometry x="241.35999999999999" y="6760" width="120" height="30" as="geometry" />
        </mxCell>
        <mxCell id="G4KadfX6KPJVV7M6jvxg-64" style="edgeStyle=orthogonalEdgeStyle;rounded=0;orthogonalLoop=1;jettySize=auto;html=1;exitX=0.5;exitY=1;exitDx=0;exitDy=0;entryX=0.5;entryY=0;entryDx=0;entryDy=0;" edge="1" parent="WIyWlLk6GJQsqaUBKTNV-1" source="G4KadfX6KPJVV7M6jvxg-65" target="G4KadfX6KPJVV7M6jvxg-82">
          <mxGeometry relative="1" as="geometry" />
        </mxCell>
        <mxCell id="G4KadfX6KPJVV7M6jvxg-65" value="&lt;font style=&quot;font-size: 10px;&quot;&gt;alpha = (m * g - Cy_b * (p * V * V / 2) * S) / (P / 57.3 + Cy_k * (p * V * V / 2) * S);&lt;/font&gt;" style="rounded=0;whiteSpace=wrap;html=1;fillColor=#d5e8d4;strokeColor=#82b366;" vertex="1" parent="WIyWlLk6GJQsqaUBKTNV-1">
          <mxGeometry x="123.69" y="6570" width="354.76" height="30" as="geometry" />
        </mxCell>
        <mxCell id="G4KadfX6KPJVV7M6jvxg-66" style="edgeStyle=orthogonalEdgeStyle;rounded=0;orthogonalLoop=1;jettySize=auto;html=1;exitX=0.5;exitY=1;exitDx=0;exitDy=0;entryX=0.5;entryY=0;entryDx=0;entryDy=0;" edge="1" parent="WIyWlLk6GJQsqaUBKTNV-1" source="G4KadfX6KPJVV7M6jvxg-67" target="G4KadfX6KPJVV7M6jvxg-58">
          <mxGeometry relative="1" as="geometry" />
        </mxCell>
        <mxCell id="G4KadfX6KPJVV7M6jvxg-67" value="&lt;span style=&quot;font-size: 23px;&quot;&gt;^&lt;/span&gt;" style="ellipse;whiteSpace=wrap;html=1;aspect=fixed;fillColor=#e51400;strokeColor=#B20000;fontColor=#ffffff;" vertex="1" parent="WIyWlLk6GJQsqaUBKTNV-1">
          <mxGeometry x="281.36" y="6100" width="40" height="40" as="geometry" />
        </mxCell>
        <mxCell id="G4KadfX6KPJVV7M6jvxg-68" value="&lt;p style=&quot;line-height: 80%; font-size: 13px;&quot;&gt;&lt;font style=&quot;font-size: 13px;&quot;&gt;// Подъем&lt;br&gt;&lt;/font&gt;&lt;/p&gt;&lt;p style=&quot;font-size: 13px; line-height: 80%;&quot;&gt;&lt;font style=&quot;font-size: 13px;&quot;&gt;lift_time(H1, H2, V)&lt;/font&gt;&lt;/p&gt;&lt;p&gt;&lt;/p&gt;" style="strokeWidth=2;html=1;shape=mxgraph.flowchart.annotation_2;align=left;labelPosition=right;pointerEvents=1;fontSize=16;" vertex="1" parent="WIyWlLk6GJQsqaUBKTNV-1">
          <mxGeometry x="396.6700000000001" y="6175" width="55.65" height="40" as="geometry" />
        </mxCell>
        <mxCell id="G4KadfX6KPJVV7M6jvxg-69" style="edgeStyle=orthogonalEdgeStyle;rounded=0;orthogonalLoop=1;jettySize=auto;html=1;exitX=0.5;exitY=1;exitDx=0;exitDy=0;entryX=0.5;entryY=0;entryDx=0;entryDy=0;" edge="1" parent="WIyWlLk6GJQsqaUBKTNV-1" source="G4KadfX6KPJVV7M6jvxg-70" target="G4KadfX6KPJVV7M6jvxg-74">
          <mxGeometry relative="1" as="geometry" />
        </mxCell>
        <mxCell id="G4KadfX6KPJVV7M6jvxg-70" value="&lt;font style=&quot;font-size: 10px;&quot;&gt;&lt;font style=&quot;font-size: 10px;&quot;&gt;g = acceleration_free_fall(H)&lt;/font&gt;;&lt;/font&gt;" style="rounded=1;whiteSpace=wrap;html=1;absoluteArcSize=1;arcSize=14;strokeWidth=1;fillColor=#fad9d5;strokeColor=#ae4132;" vertex="1" parent="WIyWlLk6GJQsqaUBKTNV-1">
          <mxGeometry x="231.56000000000003" y="6320" width="137.98" height="20" as="geometry" />
        </mxCell>
        <mxCell id="G4KadfX6KPJVV7M6jvxg-71" value="" style="endArrow=none;dashed=1;html=1;dashPattern=1 3;strokeWidth=2;rounded=0;fontSize=12;startSize=8;endSize=8;curved=1;entryX=0.049;entryY=0.495;entryDx=0;entryDy=0;entryPerimeter=0;exitX=1;exitY=0.5;exitDx=0;exitDy=0;" edge="1" parent="WIyWlLk6GJQsqaUBKTNV-1" source="G4KadfX6KPJVV7M6jvxg-70" target="G4KadfX6KPJVV7M6jvxg-72">
          <mxGeometry width="50" height="50" relative="1" as="geometry">
            <mxPoint x="351.9" y="6330" as="sourcePoint" />
            <mxPoint x="417.44000000000005" y="6329.8099999999995" as="targetPoint" />
            <Array as="points">
              <mxPoint x="387.44000000000005" y="6329.8099999999995" />
            </Array>
          </mxGeometry>
        </mxCell>
        <mxCell id="G4KadfX6KPJVV7M6jvxg-72" value="&lt;p style=&quot;line-height: 50%; font-size: 10px;&quot;&gt;&lt;font style=&quot;font-size: 10px;&quot;&gt;double acceleration_free_fall(double h) {&lt;/font&gt;&lt;/p&gt;&lt;p style=&quot;line-height: 50%; font-size: 10px;&quot;&gt;&lt;span style=&quot;background-color: initial;&quot;&gt;&lt;font style=&quot;font-size: 10px;&quot;&gt;&lt;span style=&quot;white-space: pre;&quot;&gt;&#x9;&lt;/span&gt;return 5.51e-15 * h * h * h + -4.98e-11 * h * h + -2.97e-06 * h + 9.81;&lt;/font&gt;&lt;/span&gt;&lt;/p&gt;&lt;p style=&quot;line-height: 50%; font-size: 10px;&quot;&gt;&lt;span style=&quot;background-color: initial;&quot;&gt;&lt;font style=&quot;font-size: 10px;&quot;&gt;}&lt;/font&gt;&lt;/span&gt;&lt;/p&gt;" style="strokeWidth=1;html=1;shape=mxgraph.flowchart.annotation_2;align=left;labelPosition=right;pointerEvents=1;fontSize=16;" vertex="1" parent="WIyWlLk6GJQsqaUBKTNV-1">
          <mxGeometry x="396.66999999999996" y="6310" width="55.65" height="40" as="geometry" />
        </mxCell>
        <mxCell id="G4KadfX6KPJVV7M6jvxg-73" style="edgeStyle=orthogonalEdgeStyle;rounded=0;orthogonalLoop=1;jettySize=auto;html=1;exitX=0.5;exitY=1;exitDx=0;exitDy=0;" edge="1" parent="WIyWlLk6GJQsqaUBKTNV-1" source="G4KadfX6KPJVV7M6jvxg-74" target="G4KadfX6KPJVV7M6jvxg-78">
          <mxGeometry relative="1" as="geometry" />
        </mxCell>
        <mxCell id="G4KadfX6KPJVV7M6jvxg-74" value="&lt;font style=&quot;font-size: 10px;&quot;&gt;p = air_density(H);&lt;/font&gt;" style="rounded=1;whiteSpace=wrap;html=1;absoluteArcSize=1;arcSize=14;strokeWidth=1;fillColor=#fad9d5;strokeColor=#ae4132;" vertex="1" parent="WIyWlLk6GJQsqaUBKTNV-1">
          <mxGeometry x="232.08" y="6380" width="137.98" height="20" as="geometry" />
        </mxCell>
        <mxCell id="G4KadfX6KPJVV7M6jvxg-75" value="" style="endArrow=none;dashed=1;html=1;dashPattern=1 3;strokeWidth=2;rounded=0;fontSize=12;startSize=8;endSize=8;curved=1;entryX=0.049;entryY=0.495;entryDx=0;entryDy=0;entryPerimeter=0;exitX=1;exitY=0.5;exitDx=0;exitDy=0;" edge="1" parent="WIyWlLk6GJQsqaUBKTNV-1" source="G4KadfX6KPJVV7M6jvxg-74" target="G4KadfX6KPJVV7M6jvxg-76">
          <mxGeometry width="50" height="50" relative="1" as="geometry">
            <mxPoint x="352.69000000000005" y="6390" as="sourcePoint" />
            <mxPoint x="418.23000000000013" y="6389.8099999999995" as="targetPoint" />
            <Array as="points">
              <mxPoint x="388.23000000000013" y="6389.8099999999995" />
            </Array>
          </mxGeometry>
        </mxCell>
        <mxCell id="G4KadfX6KPJVV7M6jvxg-76" value="&lt;p style=&quot;line-height: 50%; font-size: 10px;&quot;&gt;&lt;font style=&quot;font-size: 10px;&quot;&gt;double air_density(double h) {&lt;/font&gt;&lt;/p&gt;&lt;p style=&quot;line-height: 50%; font-size: 10px;&quot;&gt;&lt;font style=&quot;font-size: 10px;&quot;&gt;&amp;nbsp; &amp;nbsp; return -6.82e-14 * h * h * h + 4.31e-09 * h * h + -1.18e-04 * h + 1.22;&lt;/font&gt;&lt;/p&gt;&lt;p style=&quot;line-height: 50%; font-size: 10px;&quot;&gt;&lt;font style=&quot;font-size: 10px;&quot;&gt;}&lt;/font&gt;&lt;/p&gt;" style="strokeWidth=1;html=1;shape=mxgraph.flowchart.annotation_2;align=left;labelPosition=right;pointerEvents=1;fontSize=16;" vertex="1" parent="WIyWlLk6GJQsqaUBKTNV-1">
          <mxGeometry x="397.38" y="6370" width="55.65" height="40" as="geometry" />
        </mxCell>
        <mxCell id="G4KadfX6KPJVV7M6jvxg-77" style="edgeStyle=orthogonalEdgeStyle;rounded=0;orthogonalLoop=1;jettySize=auto;html=1;exitX=0.5;exitY=1;exitDx=0;exitDy=0;entryX=0.5;entryY=0;entryDx=0;entryDy=0;" edge="1" parent="WIyWlLk6GJQsqaUBKTNV-1" source="G4KadfX6KPJVV7M6jvxg-78" target="G4KadfX6KPJVV7M6jvxg-65">
          <mxGeometry relative="1" as="geometry" />
        </mxCell>
        <mxCell id="G4KadfX6KPJVV7M6jvxg-78" value="&lt;font style=&quot;font-size: 10px;&quot;&gt;P = thrust(H, V)&lt;/font&gt;" style="rounded=1;whiteSpace=wrap;html=1;absoluteArcSize=1;arcSize=14;strokeWidth=1;fillColor=#fad9d5;strokeColor=#ae4132;" vertex="1" parent="WIyWlLk6GJQsqaUBKTNV-1">
          <mxGeometry x="232.08" y="6480" width="137.98" height="20" as="geometry" />
        </mxCell>
        <mxCell id="G4KadfX6KPJVV7M6jvxg-79" value="" style="endArrow=none;dashed=1;html=1;dashPattern=1 3;strokeWidth=2;rounded=0;fontSize=12;startSize=8;endSize=8;curved=1;entryX=0.049;entryY=0.495;entryDx=0;entryDy=0;entryPerimeter=0;exitX=1;exitY=0.5;exitDx=0;exitDy=0;" edge="1" parent="WIyWlLk6GJQsqaUBKTNV-1" source="G4KadfX6KPJVV7M6jvxg-78" target="G4KadfX6KPJVV7M6jvxg-80">
          <mxGeometry width="50" height="50" relative="1" as="geometry">
            <mxPoint x="345.74" y="6490" as="sourcePoint" />
            <mxPoint x="411.2800000000001" y="6489.8099999999995" as="targetPoint" />
            <Array as="points">
              <mxPoint x="381.2800000000001" y="6489.8099999999995" />
            </Array>
          </mxGeometry>
        </mxCell>
        <mxCell id="G4KadfX6KPJVV7M6jvxg-80" value="&lt;p style=&quot;line-height: 50%; font-size: 10px;&quot;&gt;&lt;font style=&quot;font-size: 10px;&quot;&gt;double thrust(double h, double V) {&lt;/font&gt;&lt;/p&gt;&lt;p style=&quot;line-height: 50%; font-size: 10px;&quot;&gt;&lt;font style=&quot;font-size: 10px;&quot;&gt;&amp;nbsp; &amp;nbsp; double H = h / 1000;&lt;/font&gt;&lt;/p&gt;&lt;p style=&quot;line-height: 50%; font-size: 10px;&quot;&gt;&lt;font style=&quot;font-size: 10px;&quot;&gt;&amp;nbsp; &amp;nbsp; double M = V / speed_sound(h);&lt;/font&gt;&lt;/p&gt;&lt;p style=&quot;line-height: 50%; font-size: 10px;&quot;&gt;&lt;font style=&quot;font-size: 10px;&quot;&gt;&amp;nbsp; &amp;nbsp; double a = 7.0621e+00 * H * H + 4.9873e+02 * H - 5.1660e+03;&lt;/font&gt;&lt;/p&gt;&lt;p style=&quot;line-height: 50%; font-size: 10px;&quot;&gt;&lt;font style=&quot;font-size: 10px;&quot;&gt;&amp;nbsp; &amp;nbsp; double b = -37.960 * H * H - 314.975 * H + 9321.662;&lt;/font&gt;&lt;/p&gt;&lt;p style=&quot;line-height: 50%; font-size: 10px;&quot;&gt;&lt;font style=&quot;font-size: 10px;&quot;&gt;&amp;nbsp; &amp;nbsp; double P = a * M + b;&lt;/font&gt;&lt;/p&gt;&lt;p style=&quot;line-height: 50%; font-size: 10px;&quot;&gt;&lt;font style=&quot;font-size: 10px;&quot;&gt;&amp;nbsp; &amp;nbsp; return 9.8 * P; // Переводим в СИ&lt;/font&gt;&lt;/p&gt;&lt;p style=&quot;line-height: 50%; font-size: 10px;&quot;&gt;&lt;font style=&quot;font-size: 10px;&quot;&gt;}&lt;/font&gt;&lt;/p&gt;" style="strokeWidth=1;html=1;shape=mxgraph.flowchart.annotation_2;align=left;labelPosition=right;pointerEvents=1;fontSize=16;" vertex="1" parent="WIyWlLk6GJQsqaUBKTNV-1">
          <mxGeometry x="398.28999999999996" y="6430" width="55.65" height="120" as="geometry" />
        </mxCell>
        <mxCell id="G4KadfX6KPJVV7M6jvxg-81" style="edgeStyle=orthogonalEdgeStyle;rounded=0;orthogonalLoop=1;jettySize=auto;html=1;exitX=0.5;exitY=1;exitDx=0;exitDy=0;entryX=0.5;entryY=0;entryDx=0;entryDy=0;" edge="1" parent="WIyWlLk6GJQsqaUBKTNV-1" source="G4KadfX6KPJVV7M6jvxg-82" target="G4KadfX6KPJVV7M6jvxg-62">
          <mxGeometry relative="1" as="geometry" />
        </mxCell>
        <mxCell id="G4KadfX6KPJVV7M6jvxg-82" value="&lt;font style=&quot;font-size: 10px;&quot;&gt;frontal_resistance(alpha, &amp;amp;Cx, &amp;amp;Cy);&lt;/font&gt;" style="rounded=1;whiteSpace=wrap;html=1;absoluteArcSize=1;arcSize=14;strokeWidth=1;fillColor=#fad9d5;strokeColor=#ae4132;" vertex="1" parent="WIyWlLk6GJQsqaUBKTNV-1">
          <mxGeometry x="217.77999999999994" y="6630.5" width="165.53" height="20" as="geometry" />
        </mxCell>
        <mxCell id="G4KadfX6KPJVV7M6jvxg-83" value="&lt;p style=&quot;line-height: 50%; font-size: 10px;&quot;&gt;&lt;font style=&quot;font-size: 10px;&quot;&gt;void frontal_resistance(double alpha, double *Cx, double *Cy) {&lt;/font&gt;&lt;/p&gt;&lt;p style=&quot;line-height: 50%; font-size: 10px;&quot;&gt;&lt;font style=&quot;font-size: 10px;&quot;&gt;&amp;nbsp; &amp;nbsp; *Cy = Cy_k * alpha - Cy_b;&lt;/font&gt;&lt;/p&gt;&lt;p style=&quot;line-height: 50%; font-size: 10px;&quot;&gt;&lt;font style=&quot;font-size: 10px;&quot;&gt;&amp;nbsp; &amp;nbsp; *Cx = 4.1910e-02 * (*Cy) + 9.9850e-03;&lt;/font&gt;&lt;/p&gt;&lt;p style=&quot;line-height: 50%; font-size: 10px;&quot;&gt;&lt;font style=&quot;font-size: 10px;&quot;&gt;}&lt;/font&gt;&lt;/p&gt;" style="strokeWidth=1;html=1;shape=mxgraph.flowchart.annotation_2;align=left;labelPosition=right;pointerEvents=1;fontSize=16;" vertex="1" parent="WIyWlLk6GJQsqaUBKTNV-1">
          <mxGeometry x="399.39" y="6610" width="55.65" height="61" as="geometry" />
        </mxCell>
        <mxCell id="G4KadfX6KPJVV7M6jvxg-84" value="" style="endArrow=none;dashed=1;html=1;dashPattern=1 3;strokeWidth=2;rounded=0;entryX=1;entryY=0.5;entryDx=0;entryDy=0;exitX=0;exitY=0.5;exitDx=0;exitDy=0;exitPerimeter=0;" edge="1" parent="WIyWlLk6GJQsqaUBKTNV-1" source="G4KadfX6KPJVV7M6jvxg-83" target="G4KadfX6KPJVV7M6jvxg-82">
          <mxGeometry width="50" height="50" relative="1" as="geometry">
            <mxPoint x="402.71000000000004" y="6640" as="sourcePoint" />
            <mxPoint x="382.36" y="6640.29" as="targetPoint" />
            <Array as="points" />
          </mxGeometry>
        </mxCell>
        <mxCell id="G4KadfX6KPJVV7M6jvxg-85" value="" style="endArrow=none;dashed=1;html=1;dashPattern=1 3;strokeWidth=2;rounded=0;exitX=1;exitY=0.5;exitDx=0;exitDy=0;entryX=0.014;entryY=0.51;entryDx=0;entryDy=0;entryPerimeter=0;" edge="1" parent="WIyWlLk6GJQsqaUBKTNV-1" source="G4KadfX6KPJVV7M6jvxg-58" target="G4KadfX6KPJVV7M6jvxg-68">
          <mxGeometry width="50" height="50" relative="1" as="geometry">
            <mxPoint x="362.11" y="6194.75" as="sourcePoint" />
            <mxPoint x="402.11" y="6194.75" as="targetPoint" />
          </mxGeometry>
        </mxCell>
        <mxCell id="G4KadfX6KPJVV7M6jvxg-86" style="edgeStyle=none;curved=1;rounded=0;orthogonalLoop=1;jettySize=auto;html=1;exitX=0.5;exitY=1;exitDx=0;exitDy=0;fontSize=12;startSize=8;endSize=8;" edge="1" parent="WIyWlLk6GJQsqaUBKTNV-1">
          <mxGeometry relative="1" as="geometry">
            <mxPoint x="541.8300000000002" y="7200" as="sourcePoint" />
            <mxPoint x="541.8300000000002" y="7200" as="targetPoint" />
          </mxGeometry>
        </mxCell>
        <mxCell id="G4KadfX6KPJVV7M6jvxg-87" style="edgeStyle=orthogonalEdgeStyle;rounded=0;orthogonalLoop=1;jettySize=auto;html=1;exitX=0.5;exitY=1;exitDx=0;exitDy=0;" edge="1" parent="WIyWlLk6GJQsqaUBKTNV-1" source="G4KadfX6KPJVV7M6jvxg-88" target="G4KadfX6KPJVV7M6jvxg-90">
          <mxGeometry relative="1" as="geometry" />
        </mxCell>
        <mxCell id="G4KadfX6KPJVV7M6jvxg-88" value="Начало" style="rounded=1;whiteSpace=wrap;html=1;fontSize=12;glass=0;strokeWidth=1;shadow=0;fillColor=#fad9d5;strokeColor=#ae4132;" vertex="1" parent="WIyWlLk6GJQsqaUBKTNV-1">
          <mxGeometry x="245.22" y="7290" width="120" height="30" as="geometry" />
        </mxCell>
        <mxCell id="G4KadfX6KPJVV7M6jvxg-89" style="edgeStyle=orthogonalEdgeStyle;rounded=0;orthogonalLoop=1;jettySize=auto;html=1;exitX=0.5;exitY=1;exitDx=0;exitDy=0;entryX=0.5;entryY=0;entryDx=0;entryDy=0;" edge="1" parent="WIyWlLk6GJQsqaUBKTNV-1" source="G4KadfX6KPJVV7M6jvxg-90" target="G4KadfX6KPJVV7M6jvxg-100">
          <mxGeometry relative="1" as="geometry" />
        </mxCell>
        <mxCell id="G4KadfX6KPJVV7M6jvxg-90" value="&lt;font style=&quot;font-size: 10px;&quot;&gt;V = (V1 + V2) / 2;&lt;br&gt;H = (H1 + H2) / 2;&lt;/font&gt;" style="rounded=0;whiteSpace=wrap;html=1;fillColor=#d5e8d4;strokeColor=#82b366;" vertex="1" parent="WIyWlLk6GJQsqaUBKTNV-1">
          <mxGeometry x="245.2200000000001" y="7350" width="120" height="30" as="geometry" />
        </mxCell>
        <mxCell id="G4KadfX6KPJVV7M6jvxg-117" value="" style="edgeStyle=orthogonalEdgeStyle;rounded=0;orthogonalLoop=1;jettySize=auto;html=1;" edge="1" parent="WIyWlLk6GJQsqaUBKTNV-1" source="G4KadfX6KPJVV7M6jvxg-92" target="G4KadfX6KPJVV7M6jvxg-93">
          <mxGeometry relative="1" as="geometry" />
        </mxCell>
        <mxCell id="G4KadfX6KPJVV7M6jvxg-92" value="&lt;font style=&quot;font-size: 10px;&quot;&gt;k = (V2 - V1) / (H2 - H1);&lt;br style=&quot;border-color: var(--border-color);&quot;&gt;sin_teta = (P - Cx * (p * V * V / 2) * S) / (m * (k * V + g));&lt;br&gt;return (1 / (k * sin_teta)) * log(V2 / V1);&lt;/font&gt;" style="rounded=0;whiteSpace=wrap;html=1;fillColor=#d5e8d4;strokeColor=#82b366;" vertex="1" parent="WIyWlLk6GJQsqaUBKTNV-1">
          <mxGeometry x="175.35" y="7800" width="259.74" height="60" as="geometry" />
        </mxCell>
        <mxCell id="G4KadfX6KPJVV7M6jvxg-93" value="Конец" style="rounded=1;whiteSpace=wrap;html=1;fontSize=12;glass=0;strokeWidth=1;shadow=0;fillColor=#dae8fc;strokeColor=#6c8ebf;" vertex="1" parent="WIyWlLk6GJQsqaUBKTNV-1">
          <mxGeometry x="245.22" y="7890" width="120" height="30" as="geometry" />
        </mxCell>
        <mxCell id="G4KadfX6KPJVV7M6jvxg-94" style="edgeStyle=orthogonalEdgeStyle;rounded=0;orthogonalLoop=1;jettySize=auto;html=1;exitX=0.5;exitY=1;exitDx=0;exitDy=0;entryX=0.5;entryY=0;entryDx=0;entryDy=0;" edge="1" parent="WIyWlLk6GJQsqaUBKTNV-1" source="G4KadfX6KPJVV7M6jvxg-95" target="G4KadfX6KPJVV7M6jvxg-112">
          <mxGeometry relative="1" as="geometry" />
        </mxCell>
        <mxCell id="G4KadfX6KPJVV7M6jvxg-95" value="&lt;font style=&quot;font-size: 10px;&quot;&gt;alpha = (m * g - Cy_b * (p * V * V / 2) * S) / (P / 57.3 + Cy_k * (p * V * V / 2) * S);&lt;/font&gt;" style="rounded=0;whiteSpace=wrap;html=1;fillColor=#d5e8d4;strokeColor=#82b366;" vertex="1" parent="WIyWlLk6GJQsqaUBKTNV-1">
          <mxGeometry x="127.55" y="7680" width="354.76" height="30" as="geometry" />
        </mxCell>
        <mxCell id="G4KadfX6KPJVV7M6jvxg-96" style="edgeStyle=orthogonalEdgeStyle;rounded=0;orthogonalLoop=1;jettySize=auto;html=1;exitX=0.5;exitY=1;exitDx=0;exitDy=0;entryX=0.5;entryY=0;entryDx=0;entryDy=0;" edge="1" parent="WIyWlLk6GJQsqaUBKTNV-1" source="G4KadfX6KPJVV7M6jvxg-97" target="G4KadfX6KPJVV7M6jvxg-88">
          <mxGeometry relative="1" as="geometry" />
        </mxCell>
        <mxCell id="G4KadfX6KPJVV7M6jvxg-97" value="&lt;span style=&quot;font-size: 23px;&quot;&gt;&amp;gt;^&lt;/span&gt;" style="ellipse;whiteSpace=wrap;html=1;aspect=fixed;fillColor=#e51400;strokeColor=#B20000;fontColor=#ffffff;" vertex="1" parent="WIyWlLk6GJQsqaUBKTNV-1">
          <mxGeometry x="285.22" y="7210" width="40" height="40" as="geometry" />
        </mxCell>
        <mxCell id="G4KadfX6KPJVV7M6jvxg-98" value="&lt;p style=&quot;line-height: 80%; font-size: 13px;&quot;&gt;&lt;font style=&quot;font-size: 13px;&quot;&gt;// Разгон-подъем&lt;br&gt;&lt;/font&gt;&lt;/p&gt;&lt;p style=&quot;font-size: 13px; line-height: 80%;&quot;&gt;&lt;font style=&quot;font-size: 13px;&quot;&gt;acceleration_lift_time(H1, H2, V)&lt;/font&gt;&lt;/p&gt;&lt;p&gt;&lt;/p&gt;" style="strokeWidth=2;html=1;shape=mxgraph.flowchart.annotation_2;align=left;labelPosition=right;pointerEvents=1;fontSize=16;" vertex="1" parent="WIyWlLk6GJQsqaUBKTNV-1">
          <mxGeometry x="400.5300000000001" y="7285" width="55.65" height="40" as="geometry" />
        </mxCell>
        <mxCell id="G4KadfX6KPJVV7M6jvxg-99" style="edgeStyle=orthogonalEdgeStyle;rounded=0;orthogonalLoop=1;jettySize=auto;html=1;exitX=0.5;exitY=1;exitDx=0;exitDy=0;entryX=0.5;entryY=0;entryDx=0;entryDy=0;" edge="1" parent="WIyWlLk6GJQsqaUBKTNV-1" source="G4KadfX6KPJVV7M6jvxg-100" target="G4KadfX6KPJVV7M6jvxg-104">
          <mxGeometry relative="1" as="geometry" />
        </mxCell>
        <mxCell id="G4KadfX6KPJVV7M6jvxg-100" value="&lt;font style=&quot;font-size: 10px;&quot;&gt;&lt;font style=&quot;font-size: 10px;&quot;&gt;g = acceleration_free_fall(H)&lt;/font&gt;;&lt;/font&gt;" style="rounded=1;whiteSpace=wrap;html=1;absoluteArcSize=1;arcSize=14;strokeWidth=1;fillColor=#fad9d5;strokeColor=#ae4132;" vertex="1" parent="WIyWlLk6GJQsqaUBKTNV-1">
          <mxGeometry x="235.42000000000004" y="7430" width="137.98" height="20" as="geometry" />
        </mxCell>
        <mxCell id="G4KadfX6KPJVV7M6jvxg-101" value="" style="endArrow=none;dashed=1;html=1;dashPattern=1 3;strokeWidth=2;rounded=0;fontSize=12;startSize=8;endSize=8;curved=1;entryX=0.049;entryY=0.495;entryDx=0;entryDy=0;entryPerimeter=0;exitX=1;exitY=0.5;exitDx=0;exitDy=0;" edge="1" parent="WIyWlLk6GJQsqaUBKTNV-1" source="G4KadfX6KPJVV7M6jvxg-100" target="G4KadfX6KPJVV7M6jvxg-102">
          <mxGeometry width="50" height="50" relative="1" as="geometry">
            <mxPoint x="355.76" y="7440" as="sourcePoint" />
            <mxPoint x="421.30000000000007" y="7439.8099999999995" as="targetPoint" />
            <Array as="points">
              <mxPoint x="391.30000000000007" y="7439.8099999999995" />
            </Array>
          </mxGeometry>
        </mxCell>
        <mxCell id="G4KadfX6KPJVV7M6jvxg-102" value="&lt;p style=&quot;line-height: 50%; font-size: 10px;&quot;&gt;&lt;font style=&quot;font-size: 10px;&quot;&gt;double acceleration_free_fall(double h) {&lt;/font&gt;&lt;/p&gt;&lt;p style=&quot;line-height: 50%; font-size: 10px;&quot;&gt;&lt;span style=&quot;background-color: initial;&quot;&gt;&lt;font style=&quot;font-size: 10px;&quot;&gt;&lt;span style=&quot;white-space: pre;&quot;&gt;&#x9;&lt;/span&gt;return 5.51e-15 * h * h * h + -4.98e-11 * h * h + -2.97e-06 * h + 9.81;&lt;/font&gt;&lt;/span&gt;&lt;/p&gt;&lt;p style=&quot;line-height: 50%; font-size: 10px;&quot;&gt;&lt;span style=&quot;background-color: initial;&quot;&gt;&lt;font style=&quot;font-size: 10px;&quot;&gt;}&lt;/font&gt;&lt;/span&gt;&lt;/p&gt;" style="strokeWidth=1;html=1;shape=mxgraph.flowchart.annotation_2;align=left;labelPosition=right;pointerEvents=1;fontSize=16;" vertex="1" parent="WIyWlLk6GJQsqaUBKTNV-1">
          <mxGeometry x="400.53" y="7420" width="55.65" height="40" as="geometry" />
        </mxCell>
        <mxCell id="G4KadfX6KPJVV7M6jvxg-103" style="edgeStyle=orthogonalEdgeStyle;rounded=0;orthogonalLoop=1;jettySize=auto;html=1;exitX=0.5;exitY=1;exitDx=0;exitDy=0;" edge="1" parent="WIyWlLk6GJQsqaUBKTNV-1" source="G4KadfX6KPJVV7M6jvxg-104" target="G4KadfX6KPJVV7M6jvxg-108">
          <mxGeometry relative="1" as="geometry" />
        </mxCell>
        <mxCell id="G4KadfX6KPJVV7M6jvxg-104" value="&lt;font style=&quot;font-size: 10px;&quot;&gt;p = air_density(H);&lt;/font&gt;" style="rounded=1;whiteSpace=wrap;html=1;absoluteArcSize=1;arcSize=14;strokeWidth=1;fillColor=#fad9d5;strokeColor=#ae4132;" vertex="1" parent="WIyWlLk6GJQsqaUBKTNV-1">
          <mxGeometry x="235.94000000000003" y="7490" width="137.98" height="20" as="geometry" />
        </mxCell>
        <mxCell id="G4KadfX6KPJVV7M6jvxg-105" value="" style="endArrow=none;dashed=1;html=1;dashPattern=1 3;strokeWidth=2;rounded=0;fontSize=12;startSize=8;endSize=8;curved=1;entryX=0.049;entryY=0.495;entryDx=0;entryDy=0;entryPerimeter=0;exitX=1;exitY=0.5;exitDx=0;exitDy=0;" edge="1" parent="WIyWlLk6GJQsqaUBKTNV-1" source="G4KadfX6KPJVV7M6jvxg-104" target="G4KadfX6KPJVV7M6jvxg-106">
          <mxGeometry width="50" height="50" relative="1" as="geometry">
            <mxPoint x="356.55000000000007" y="7500" as="sourcePoint" />
            <mxPoint x="422.09000000000015" y="7499.8099999999995" as="targetPoint" />
            <Array as="points">
              <mxPoint x="392.09000000000015" y="7499.8099999999995" />
            </Array>
          </mxGeometry>
        </mxCell>
        <mxCell id="G4KadfX6KPJVV7M6jvxg-106" value="&lt;p style=&quot;line-height: 50%; font-size: 10px;&quot;&gt;&lt;font style=&quot;font-size: 10px;&quot;&gt;double air_density(double h) {&lt;/font&gt;&lt;/p&gt;&lt;p style=&quot;line-height: 50%; font-size: 10px;&quot;&gt;&lt;font style=&quot;font-size: 10px;&quot;&gt;&amp;nbsp; &amp;nbsp; return -6.82e-14 * h * h * h + 4.31e-09 * h * h + -1.18e-04 * h + 1.22;&lt;/font&gt;&lt;/p&gt;&lt;p style=&quot;line-height: 50%; font-size: 10px;&quot;&gt;&lt;font style=&quot;font-size: 10px;&quot;&gt;}&lt;/font&gt;&lt;/p&gt;" style="strokeWidth=1;html=1;shape=mxgraph.flowchart.annotation_2;align=left;labelPosition=right;pointerEvents=1;fontSize=16;" vertex="1" parent="WIyWlLk6GJQsqaUBKTNV-1">
          <mxGeometry x="401.24" y="7480" width="55.65" height="40" as="geometry" />
        </mxCell>
        <mxCell id="G4KadfX6KPJVV7M6jvxg-107" style="edgeStyle=orthogonalEdgeStyle;rounded=0;orthogonalLoop=1;jettySize=auto;html=1;exitX=0.5;exitY=1;exitDx=0;exitDy=0;entryX=0.5;entryY=0;entryDx=0;entryDy=0;" edge="1" parent="WIyWlLk6GJQsqaUBKTNV-1" source="G4KadfX6KPJVV7M6jvxg-108" target="G4KadfX6KPJVV7M6jvxg-95">
          <mxGeometry relative="1" as="geometry" />
        </mxCell>
        <mxCell id="G4KadfX6KPJVV7M6jvxg-108" value="&lt;font style=&quot;font-size: 10px;&quot;&gt;P = thrust(H, V)&lt;/font&gt;" style="rounded=1;whiteSpace=wrap;html=1;absoluteArcSize=1;arcSize=14;strokeWidth=1;fillColor=#fad9d5;strokeColor=#ae4132;" vertex="1" parent="WIyWlLk6GJQsqaUBKTNV-1">
          <mxGeometry x="235.94000000000003" y="7590" width="137.98" height="20" as="geometry" />
        </mxCell>
        <mxCell id="G4KadfX6KPJVV7M6jvxg-109" value="" style="endArrow=none;dashed=1;html=1;dashPattern=1 3;strokeWidth=2;rounded=0;fontSize=12;startSize=8;endSize=8;curved=1;entryX=0.049;entryY=0.495;entryDx=0;entryDy=0;entryPerimeter=0;exitX=1;exitY=0.5;exitDx=0;exitDy=0;" edge="1" parent="WIyWlLk6GJQsqaUBKTNV-1" source="G4KadfX6KPJVV7M6jvxg-108" target="G4KadfX6KPJVV7M6jvxg-110">
          <mxGeometry width="50" height="50" relative="1" as="geometry">
            <mxPoint x="349.6" y="7600" as="sourcePoint" />
            <mxPoint x="415.1400000000001" y="7599.8099999999995" as="targetPoint" />
            <Array as="points">
              <mxPoint x="385.1400000000001" y="7599.8099999999995" />
            </Array>
          </mxGeometry>
        </mxCell>
        <mxCell id="G4KadfX6KPJVV7M6jvxg-110" value="&lt;p style=&quot;line-height: 50%; font-size: 10px;&quot;&gt;&lt;font style=&quot;font-size: 10px;&quot;&gt;double thrust(double h, double V) {&lt;/font&gt;&lt;/p&gt;&lt;p style=&quot;line-height: 50%; font-size: 10px;&quot;&gt;&lt;font style=&quot;font-size: 10px;&quot;&gt;&amp;nbsp; &amp;nbsp; double H = h / 1000;&lt;/font&gt;&lt;/p&gt;&lt;p style=&quot;line-height: 50%; font-size: 10px;&quot;&gt;&lt;font style=&quot;font-size: 10px;&quot;&gt;&amp;nbsp; &amp;nbsp; double M = V / speed_sound(h);&lt;/font&gt;&lt;/p&gt;&lt;p style=&quot;line-height: 50%; font-size: 10px;&quot;&gt;&lt;font style=&quot;font-size: 10px;&quot;&gt;&amp;nbsp; &amp;nbsp; double a = 7.0621e+00 * H * H + 4.9873e+02 * H - 5.1660e+03;&lt;/font&gt;&lt;/p&gt;&lt;p style=&quot;line-height: 50%; font-size: 10px;&quot;&gt;&lt;font style=&quot;font-size: 10px;&quot;&gt;&amp;nbsp; &amp;nbsp; double b = -37.960 * H * H - 314.975 * H + 9321.662;&lt;/font&gt;&lt;/p&gt;&lt;p style=&quot;line-height: 50%; font-size: 10px;&quot;&gt;&lt;font style=&quot;font-size: 10px;&quot;&gt;&amp;nbsp; &amp;nbsp; double P = a * M + b;&lt;/font&gt;&lt;/p&gt;&lt;p style=&quot;line-height: 50%; font-size: 10px;&quot;&gt;&lt;font style=&quot;font-size: 10px;&quot;&gt;&amp;nbsp; &amp;nbsp; return 9.8 * P; // Переводим в СИ&lt;/font&gt;&lt;/p&gt;&lt;p style=&quot;line-height: 50%; font-size: 10px;&quot;&gt;&lt;font style=&quot;font-size: 10px;&quot;&gt;}&lt;/font&gt;&lt;/p&gt;" style="strokeWidth=1;html=1;shape=mxgraph.flowchart.annotation_2;align=left;labelPosition=right;pointerEvents=1;fontSize=16;" vertex="1" parent="WIyWlLk6GJQsqaUBKTNV-1">
          <mxGeometry x="402.15" y="7540" width="55.65" height="120" as="geometry" />
        </mxCell>
        <mxCell id="G4KadfX6KPJVV7M6jvxg-111" style="edgeStyle=orthogonalEdgeStyle;rounded=0;orthogonalLoop=1;jettySize=auto;html=1;exitX=0.5;exitY=1;exitDx=0;exitDy=0;entryX=0.5;entryY=0;entryDx=0;entryDy=0;" edge="1" parent="WIyWlLk6GJQsqaUBKTNV-1" source="G4KadfX6KPJVV7M6jvxg-112" target="G4KadfX6KPJVV7M6jvxg-92">
          <mxGeometry relative="1" as="geometry" />
        </mxCell>
        <mxCell id="G4KadfX6KPJVV7M6jvxg-112" value="&lt;font style=&quot;font-size: 10px;&quot;&gt;frontal_resistance(alpha, &amp;amp;Cx, &amp;amp;Cy);&lt;/font&gt;" style="rounded=1;whiteSpace=wrap;html=1;absoluteArcSize=1;arcSize=14;strokeWidth=1;fillColor=#fad9d5;strokeColor=#ae4132;" vertex="1" parent="WIyWlLk6GJQsqaUBKTNV-1">
          <mxGeometry x="221.63999999999996" y="7740.5" width="165.53" height="20" as="geometry" />
        </mxCell>
        <mxCell id="G4KadfX6KPJVV7M6jvxg-113" value="&lt;p style=&quot;line-height: 50%; font-size: 10px;&quot;&gt;&lt;font style=&quot;font-size: 10px;&quot;&gt;void frontal_resistance(double alpha, double *Cx, double *Cy) {&lt;/font&gt;&lt;/p&gt;&lt;p style=&quot;line-height: 50%; font-size: 10px;&quot;&gt;&lt;font style=&quot;font-size: 10px;&quot;&gt;&amp;nbsp; &amp;nbsp; *Cy = Cy_k * alpha - Cy_b;&lt;/font&gt;&lt;/p&gt;&lt;p style=&quot;line-height: 50%; font-size: 10px;&quot;&gt;&lt;font style=&quot;font-size: 10px;&quot;&gt;&amp;nbsp; &amp;nbsp; *Cx = 4.1910e-02 * (*Cy) + 9.9850e-03;&lt;/font&gt;&lt;/p&gt;&lt;p style=&quot;line-height: 50%; font-size: 10px;&quot;&gt;&lt;font style=&quot;font-size: 10px;&quot;&gt;}&lt;/font&gt;&lt;/p&gt;" style="strokeWidth=1;html=1;shape=mxgraph.flowchart.annotation_2;align=left;labelPosition=right;pointerEvents=1;fontSize=16;" vertex="1" parent="WIyWlLk6GJQsqaUBKTNV-1">
          <mxGeometry x="403.25" y="7720" width="55.65" height="61" as="geometry" />
        </mxCell>
        <mxCell id="G4KadfX6KPJVV7M6jvxg-114" value="" style="endArrow=none;dashed=1;html=1;dashPattern=1 3;strokeWidth=2;rounded=0;entryX=1;entryY=0.5;entryDx=0;entryDy=0;exitX=0;exitY=0.5;exitDx=0;exitDy=0;exitPerimeter=0;" edge="1" parent="WIyWlLk6GJQsqaUBKTNV-1" source="G4KadfX6KPJVV7M6jvxg-113" target="G4KadfX6KPJVV7M6jvxg-112">
          <mxGeometry width="50" height="50" relative="1" as="geometry">
            <mxPoint x="406.57000000000005" y="7750" as="sourcePoint" />
            <mxPoint x="386.22" y="7750.29" as="targetPoint" />
            <Array as="points" />
          </mxGeometry>
        </mxCell>
        <mxCell id="G4KadfX6KPJVV7M6jvxg-115" value="" style="endArrow=none;dashed=1;html=1;dashPattern=1 3;strokeWidth=2;rounded=0;exitX=1;exitY=0.5;exitDx=0;exitDy=0;entryX=0.014;entryY=0.51;entryDx=0;entryDy=0;entryPerimeter=0;" edge="1" parent="WIyWlLk6GJQsqaUBKTNV-1" source="G4KadfX6KPJVV7M6jvxg-88" target="G4KadfX6KPJVV7M6jvxg-98">
          <mxGeometry width="50" height="50" relative="1" as="geometry">
            <mxPoint x="365.97" y="7304.75" as="sourcePoint" />
            <mxPoint x="405.97" y="7304.75" as="targetPoint" />
          </mxGeometry>
        </mxCell>
        <mxCell id="G4KadfX6KPJVV7M6jvxg-118" value="" style="endArrow=classic;html=1;rounded=0;entryX=0.5;entryY=0;entryDx=0;entryDy=0;" edge="1" parent="WIyWlLk6GJQsqaUBKTNV-1">
          <mxGeometry width="50" height="50" relative="1" as="geometry">
            <mxPoint x="574.2700000000001" y="705" as="sourcePoint" />
            <mxPoint x="574.41" y="728" as="targetPoint" />
          </mxGeometry>
        </mxCell>
        <mxCell id="G4KadfX6KPJVV7M6jvxg-119" value="" style="endArrow=classic;html=1;rounded=0;entryX=0.5;entryY=0;entryDx=0;entryDy=0;" edge="1" parent="WIyWlLk6GJQsqaUBKTNV-1">
          <mxGeometry width="50" height="50" relative="1" as="geometry">
            <mxPoint x="312.35" y="1705" as="sourcePoint" />
            <mxPoint x="312.48999999999995" y="1729" as="targetPoint" />
          </mxGeometry>
        </mxCell>
        <mxCell id="G4KadfX6KPJVV7M6jvxg-120" value="" style="endArrow=classic;html=1;rounded=0;entryX=0.5;entryY=0;entryDx=0;entryDy=0;" edge="1" parent="WIyWlLk6GJQsqaUBKTNV-1" target="-MrWlAkrLKYYtXTXgUd7-235">
          <mxGeometry width="50" height="50" relative="1" as="geometry">
            <mxPoint x="760" y="1715" as="sourcePoint" />
            <mxPoint x="760" y="1735" as="targetPoint" />
          </mxGeometry>
        </mxCell>
        <mxCell id="G4KadfX6KPJVV7M6jvxg-127" value="" style="edgeStyle=orthogonalEdgeStyle;rounded=0;orthogonalLoop=1;jettySize=auto;html=1;" edge="1" parent="WIyWlLk6GJQsqaUBKTNV-1" source="G4KadfX6KPJVV7M6jvxg-124" target="G4KadfX6KPJVV7M6jvxg-126">
          <mxGeometry relative="1" as="geometry" />
        </mxCell>
        <mxCell id="G4KadfX6KPJVV7M6jvxg-124" value="&lt;div&gt;int k = 0;&lt;/div&gt;&lt;div&gt;&lt;span style=&quot;background-color: initial;&quot;&gt;int l = 0;&lt;/span&gt;&lt;/div&gt;" style="rounded=0;whiteSpace=wrap;html=1;" vertex="1" parent="WIyWlLk6GJQsqaUBKTNV-1">
          <mxGeometry x="532.33" y="2528" width="120" height="30" as="geometry" />
        </mxCell>
        <mxCell id="G4KadfX6KPJVV7M6jvxg-132" value="" style="edgeStyle=orthogonalEdgeStyle;rounded=0;orthogonalLoop=1;jettySize=auto;html=1;" edge="1" parent="WIyWlLk6GJQsqaUBKTNV-1" source="G4KadfX6KPJVV7M6jvxg-126" target="G4KadfX6KPJVV7M6jvxg-131">
          <mxGeometry relative="1" as="geometry" />
        </mxCell>
        <mxCell id="G4KadfX6KPJVV7M6jvxg-133" value="да" style="edgeLabel;html=1;align=center;verticalAlign=middle;resizable=0;points=[];" vertex="1" connectable="0" parent="G4KadfX6KPJVV7M6jvxg-132">
          <mxGeometry x="-0.413" y="-1" relative="1" as="geometry">
            <mxPoint x="8" as="offset" />
          </mxGeometry>
        </mxCell>
        <mxCell id="G4KadfX6KPJVV7M6jvxg-126" value="k + l &amp;lt; 2 * n" style="rhombus;whiteSpace=wrap;html=1;" vertex="1" parent="WIyWlLk6GJQsqaUBKTNV-1">
          <mxGeometry x="538.65" y="2598" width="107.67" height="42" as="geometry" />
        </mxCell>
        <mxCell id="G4KadfX6KPJVV7M6jvxg-136" style="edgeStyle=orthogonalEdgeStyle;rounded=0;orthogonalLoop=1;jettySize=auto;html=1;exitX=1;exitY=0.5;exitDx=0;exitDy=0;entryX=0.5;entryY=0;entryDx=0;entryDy=0;" edge="1" parent="WIyWlLk6GJQsqaUBKTNV-1" source="G4KadfX6KPJVV7M6jvxg-131" target="G4KadfX6KPJVV7M6jvxg-135">
          <mxGeometry relative="1" as="geometry" />
        </mxCell>
        <mxCell id="G4KadfX6KPJVV7M6jvxg-137" value="нет" style="edgeLabel;html=1;align=center;verticalAlign=middle;resizable=0;points=[];" vertex="1" connectable="0" parent="G4KadfX6KPJVV7M6jvxg-136">
          <mxGeometry x="-0.4425" y="-1" relative="1" as="geometry">
            <mxPoint x="12" y="4" as="offset" />
          </mxGeometry>
        </mxCell>
        <mxCell id="G4KadfX6KPJVV7M6jvxg-155" style="edgeStyle=orthogonalEdgeStyle;rounded=0;orthogonalLoop=1;jettySize=auto;html=1;exitX=0;exitY=0.5;exitDx=0;exitDy=0;entryX=0.5;entryY=0;entryDx=0;entryDy=0;" edge="1" parent="WIyWlLk6GJQsqaUBKTNV-1" source="G4KadfX6KPJVV7M6jvxg-131" target="G4KadfX6KPJVV7M6jvxg-146">
          <mxGeometry relative="1" as="geometry" />
        </mxCell>
        <mxCell id="G4KadfX6KPJVV7M6jvxg-131" value="strcmp(matr[k][l].event, &quot;раз&quot;" style="rhombus;whiteSpace=wrap;html=1;" vertex="1" parent="WIyWlLk6GJQsqaUBKTNV-1">
          <mxGeometry x="514.0699999999999" y="2690" width="241.35" height="42" as="geometry" />
        </mxCell>
        <mxCell id="G4KadfX6KPJVV7M6jvxg-138" style="edgeStyle=orthogonalEdgeStyle;rounded=0;orthogonalLoop=1;jettySize=auto;html=1;exitX=1;exitY=0.5;exitDx=0;exitDy=0;entryX=0.5;entryY=0;entryDx=0;entryDy=0;" edge="1" parent="WIyWlLk6GJQsqaUBKTNV-1" source="G4KadfX6KPJVV7M6jvxg-135" target="G4KadfX6KPJVV7M6jvxg-141">
          <mxGeometry relative="1" as="geometry">
            <mxPoint x="678.77" y="2900" as="targetPoint" />
            <Array as="points">
              <mxPoint x="768.77" y="2821" />
              <mxPoint x="768.77" y="2871" />
              <mxPoint x="679.77" y="2871" />
            </Array>
          </mxGeometry>
        </mxCell>
        <mxCell id="G4KadfX6KPJVV7M6jvxg-139" value="нет" style="edgeLabel;html=1;align=center;verticalAlign=middle;resizable=0;points=[];" vertex="1" connectable="0" parent="G4KadfX6KPJVV7M6jvxg-138">
          <mxGeometry x="-0.5913" y="-2" relative="1" as="geometry">
            <mxPoint x="-9" as="offset" />
          </mxGeometry>
        </mxCell>
        <mxCell id="G4KadfX6KPJVV7M6jvxg-153" style="edgeStyle=orthogonalEdgeStyle;rounded=0;orthogonalLoop=1;jettySize=auto;html=1;exitX=0;exitY=0.5;exitDx=0;exitDy=0;entryX=0.5;entryY=0;entryDx=0;entryDy=0;" edge="1" parent="WIyWlLk6GJQsqaUBKTNV-1" source="G4KadfX6KPJVV7M6jvxg-135" target="G4KadfX6KPJVV7M6jvxg-150">
          <mxGeometry relative="1" as="geometry" />
        </mxCell>
        <mxCell id="G4KadfX6KPJVV7M6jvxg-135" value="strcmp(matr[k][l].event, &quot;раз&quot;" style="rhombus;whiteSpace=wrap;html=1;" vertex="1" parent="WIyWlLk6GJQsqaUBKTNV-1">
          <mxGeometry x="505.7399999999999" y="2800" width="241.35" height="42" as="geometry" />
        </mxCell>
        <mxCell id="G4KadfX6KPJVV7M6jvxg-143" style="edgeStyle=orthogonalEdgeStyle;rounded=0;orthogonalLoop=1;jettySize=auto;html=1;exitX=0.5;exitY=1;exitDx=0;exitDy=0;" edge="1" parent="WIyWlLk6GJQsqaUBKTNV-1" source="G4KadfX6KPJVV7M6jvxg-141" target="G4KadfX6KPJVV7M6jvxg-142">
          <mxGeometry relative="1" as="geometry" />
        </mxCell>
        <mxCell id="G4KadfX6KPJVV7M6jvxg-141" value="printf(&quot;р-п; &quot;);" style="shape=parallelogram;perimeter=parallelogramPerimeter;whiteSpace=wrap;html=1;fixedSize=1;" vertex="1" parent="WIyWlLk6GJQsqaUBKTNV-1">
          <mxGeometry x="619.71" y="2890" width="120" height="20" as="geometry" />
        </mxCell>
        <mxCell id="G4KadfX6KPJVV7M6jvxg-142" value="&amp;nbsp;l = l + 1;&lt;br&gt;&amp;nbsp;k = k + 1;" style="rounded=0;whiteSpace=wrap;html=1;" vertex="1" parent="WIyWlLk6GJQsqaUBKTNV-1">
          <mxGeometry x="619.71" y="2932" width="120" height="28" as="geometry" />
        </mxCell>
        <mxCell id="G4KadfX6KPJVV7M6jvxg-145" style="edgeStyle=orthogonalEdgeStyle;rounded=0;orthogonalLoop=1;jettySize=auto;html=1;exitX=0.5;exitY=1;exitDx=0;exitDy=0;" edge="1" parent="WIyWlLk6GJQsqaUBKTNV-1" source="G4KadfX6KPJVV7M6jvxg-146" target="G4KadfX6KPJVV7M6jvxg-147">
          <mxGeometry relative="1" as="geometry" />
        </mxCell>
        <mxCell id="G4KadfX6KPJVV7M6jvxg-146" value="printf(&quot;раз; &quot;);" style="shape=parallelogram;perimeter=parallelogramPerimeter;whiteSpace=wrap;html=1;fixedSize=1;" vertex="1" parent="WIyWlLk6GJQsqaUBKTNV-1">
          <mxGeometry x="429.34000000000003" y="2732" width="120" height="20" as="geometry" />
        </mxCell>
        <mxCell id="G4KadfX6KPJVV7M6jvxg-147" value="&amp;nbsp;l = l + 1;" style="rounded=0;whiteSpace=wrap;html=1;" vertex="1" parent="WIyWlLk6GJQsqaUBKTNV-1">
          <mxGeometry x="429.34000000000003" y="2782" width="120" height="18" as="geometry" />
        </mxCell>
        <mxCell id="G4KadfX6KPJVV7M6jvxg-149" style="edgeStyle=orthogonalEdgeStyle;rounded=0;orthogonalLoop=1;jettySize=auto;html=1;exitX=0.5;exitY=1;exitDx=0;exitDy=0;" edge="1" parent="WIyWlLk6GJQsqaUBKTNV-1" source="G4KadfX6KPJVV7M6jvxg-150" target="G4KadfX6KPJVV7M6jvxg-151">
          <mxGeometry relative="1" as="geometry" />
        </mxCell>
        <mxCell id="G4KadfX6KPJVV7M6jvxg-150" value="printf(&quot;под; &quot;);" style="shape=parallelogram;perimeter=parallelogramPerimeter;whiteSpace=wrap;html=1;fixedSize=1;" vertex="1" parent="WIyWlLk6GJQsqaUBKTNV-1">
          <mxGeometry x="435.09000000000003" y="2882" width="120" height="20" as="geometry" />
        </mxCell>
        <mxCell id="G4KadfX6KPJVV7M6jvxg-158" style="edgeStyle=orthogonalEdgeStyle;rounded=0;orthogonalLoop=1;jettySize=auto;html=1;exitX=0.5;exitY=1;exitDx=0;exitDy=0;strokeColor=none;" edge="1" parent="WIyWlLk6GJQsqaUBKTNV-1" source="G4KadfX6KPJVV7M6jvxg-151">
          <mxGeometry relative="1" as="geometry">
            <mxPoint x="494.8888888888889" y="2980" as="targetPoint" />
          </mxGeometry>
        </mxCell>
        <mxCell id="G4KadfX6KPJVV7M6jvxg-151" value="&amp;nbsp;k = k + 1;" style="rounded=0;whiteSpace=wrap;html=1;" vertex="1" parent="WIyWlLk6GJQsqaUBKTNV-1">
          <mxGeometry x="435.09000000000003" y="2926" width="120" height="18" as="geometry" />
        </mxCell>
        <mxCell id="G4KadfX6KPJVV7M6jvxg-154" value="да" style="text;html=1;align=center;verticalAlign=middle;resizable=0;points=[];autosize=1;strokeColor=none;fillColor=none;" vertex="1" parent="WIyWlLk6GJQsqaUBKTNV-1">
          <mxGeometry x="475.09000000000003" y="2828" width="40" height="30" as="geometry" />
        </mxCell>
        <mxCell id="G4KadfX6KPJVV7M6jvxg-159" value="" style="endArrow=none;html=1;rounded=0;" edge="1" parent="WIyWlLk6GJQsqaUBKTNV-1">
          <mxGeometry width="50" height="50" relative="1" as="geometry">
            <mxPoint x="590" y="2980" as="sourcePoint" />
            <mxPoint x="590" y="2940" as="targetPoint" />
          </mxGeometry>
        </mxCell>
      </root>
    </mxGraphModel>
  </diagram>
</mxfile>
